<mxfile host="app.diagrams.net" modified="2023-12-09T00:45:24.514Z" agent="Mozilla/5.0 (Windows NT 10.0; Win64; x64) AppleWebKit/537.36 (KHTML, like Gecko) Chrome/120.0.0.0 Safari/537.36" etag="SvAdHDzYR7mGfO9Zc_Ys" version="22.1.7" type="device">
  <diagram id="R2lEEEUBdFMjLlhIrx00" name="Page-1">
    <mxGraphModel dx="1985" dy="1255" grid="1" gridSize="10" guides="1" tooltips="1" connect="1" arrows="1" fold="1" page="1" pageScale="1" pageWidth="850" pageHeight="1100" math="0" shadow="0" extFonts="Permanent Marker^https://fonts.googleapis.com/css?family=Permanent+Marker">
      <root>
        <mxCell id="0" />
        <mxCell id="1" parent="0" />
        <mxCell id="1U01NzLirec5ID0dAkJI-1" value="Developer" style="shape=table;startSize=30;container=1;collapsible=1;childLayout=tableLayout;fixedRows=1;rowLines=0;fontStyle=1;align=center;resizeLast=1;html=1;whiteSpace=wrap;" parent="1" vertex="1">
          <mxGeometry x="19" y="265" width="260" height="130" as="geometry" />
        </mxCell>
        <mxCell id="1U01NzLirec5ID0dAkJI-2" value="" style="shape=tableRow;horizontal=0;startSize=0;swimlaneHead=0;swimlaneBody=0;fillColor=none;collapsible=0;dropTarget=0;points=[[0,0.5],[1,0.5]];portConstraint=eastwest;top=0;left=0;right=0;bottom=0;html=1;" parent="1U01NzLirec5ID0dAkJI-1" vertex="1">
          <mxGeometry y="30" width="260" height="30" as="geometry" />
        </mxCell>
        <mxCell id="1U01NzLirec5ID0dAkJI-3" value="PK" style="shape=partialRectangle;connectable=0;fillColor=none;top=0;left=0;bottom=0;right=0;fontStyle=1;overflow=hidden;html=1;whiteSpace=wrap;" parent="1U01NzLirec5ID0dAkJI-2" vertex="1">
          <mxGeometry width="60" height="30" as="geometry">
            <mxRectangle width="60" height="30" as="alternateBounds" />
          </mxGeometry>
        </mxCell>
        <mxCell id="1U01NzLirec5ID0dAkJI-4" value="dev_name [VARCHAR(50)]" style="shape=partialRectangle;connectable=0;fillColor=none;top=0;left=0;bottom=0;right=0;align=left;spacingLeft=6;fontStyle=5;overflow=hidden;html=1;whiteSpace=wrap;" parent="1U01NzLirec5ID0dAkJI-2" vertex="1">
          <mxGeometry x="60" width="200" height="30" as="geometry">
            <mxRectangle width="200" height="30" as="alternateBounds" />
          </mxGeometry>
        </mxCell>
        <mxCell id="1U01NzLirec5ID0dAkJI-5" value="" style="shape=tableRow;horizontal=0;startSize=0;swimlaneHead=0;swimlaneBody=0;fillColor=none;collapsible=0;dropTarget=0;points=[[0,0.5],[1,0.5]];portConstraint=eastwest;top=0;left=0;right=0;bottom=1;html=1;" parent="1U01NzLirec5ID0dAkJI-1" vertex="1">
          <mxGeometry y="60" width="260" height="20" as="geometry" />
        </mxCell>
        <mxCell id="1U01NzLirec5ID0dAkJI-6" value="" style="shape=partialRectangle;connectable=0;fillColor=none;top=0;left=0;bottom=0;right=0;fontStyle=1;overflow=hidden;html=1;whiteSpace=wrap;" parent="1U01NzLirec5ID0dAkJI-5" vertex="1">
          <mxGeometry width="60" height="20" as="geometry">
            <mxRectangle width="60" height="20" as="alternateBounds" />
          </mxGeometry>
        </mxCell>
        <mxCell id="1U01NzLirec5ID0dAkJI-7" value="" style="shape=partialRectangle;connectable=0;fillColor=none;top=0;left=0;bottom=0;right=0;align=left;spacingLeft=6;fontStyle=5;overflow=hidden;html=1;whiteSpace=wrap;" parent="1U01NzLirec5ID0dAkJI-5" vertex="1">
          <mxGeometry x="60" width="200" height="20" as="geometry">
            <mxRectangle width="200" height="20" as="alternateBounds" />
          </mxGeometry>
        </mxCell>
        <mxCell id="1U01NzLirec5ID0dAkJI-8" value="" style="shape=tableRow;horizontal=0;startSize=0;swimlaneHead=0;swimlaneBody=0;fillColor=none;collapsible=0;dropTarget=0;points=[[0,0.5],[1,0.5]];portConstraint=eastwest;top=0;left=0;right=0;bottom=0;html=1;" parent="1U01NzLirec5ID0dAkJI-1" vertex="1">
          <mxGeometry y="80" width="260" height="30" as="geometry" />
        </mxCell>
        <mxCell id="1U01NzLirec5ID0dAkJI-9" value="" style="shape=partialRectangle;connectable=0;fillColor=none;top=0;left=0;bottom=0;right=0;editable=1;overflow=hidden;html=1;whiteSpace=wrap;" parent="1U01NzLirec5ID0dAkJI-8" vertex="1">
          <mxGeometry width="60" height="30" as="geometry">
            <mxRectangle width="60" height="30" as="alternateBounds" />
          </mxGeometry>
        </mxCell>
        <mxCell id="1U01NzLirec5ID0dAkJI-10" value="genre [VARCHAR(50)]" style="shape=partialRectangle;connectable=0;fillColor=none;top=0;left=0;bottom=0;right=0;align=left;spacingLeft=6;overflow=hidden;html=1;whiteSpace=wrap;" parent="1U01NzLirec5ID0dAkJI-8" vertex="1">
          <mxGeometry x="60" width="200" height="30" as="geometry">
            <mxRectangle width="200" height="30" as="alternateBounds" />
          </mxGeometry>
        </mxCell>
        <mxCell id="1U01NzLirec5ID0dAkJI-11" value="" style="shape=tableRow;horizontal=0;startSize=0;swimlaneHead=0;swimlaneBody=0;fillColor=none;collapsible=0;dropTarget=0;points=[[0,0.5],[1,0.5]];portConstraint=eastwest;top=0;left=0;right=0;bottom=0;html=1;" parent="1U01NzLirec5ID0dAkJI-1" vertex="1">
          <mxGeometry y="110" width="260" height="20" as="geometry" />
        </mxCell>
        <mxCell id="1U01NzLirec5ID0dAkJI-12" value="" style="shape=partialRectangle;connectable=0;fillColor=none;top=0;left=0;bottom=0;right=0;editable=1;overflow=hidden;html=1;whiteSpace=wrap;" parent="1U01NzLirec5ID0dAkJI-11" vertex="1">
          <mxGeometry width="60" height="20" as="geometry">
            <mxRectangle width="60" height="20" as="alternateBounds" />
          </mxGeometry>
        </mxCell>
        <mxCell id="1U01NzLirec5ID0dAkJI-13" value="" style="shape=partialRectangle;connectable=0;fillColor=none;top=0;left=0;bottom=0;right=0;align=left;spacingLeft=6;overflow=hidden;html=1;whiteSpace=wrap;" parent="1U01NzLirec5ID0dAkJI-11" vertex="1">
          <mxGeometry x="60" width="200" height="20" as="geometry">
            <mxRectangle width="200" height="20" as="alternateBounds" />
          </mxGeometry>
        </mxCell>
        <mxCell id="1U01NzLirec5ID0dAkJI-14" value="&lt;font style=&quot;font-size: 18px;&quot;&gt;Noah McMahon&lt;/font&gt;" style="text;strokeColor=none;align=center;fillColor=none;html=1;verticalAlign=middle;whiteSpace=wrap;rounded=0;" parent="1" vertex="1">
          <mxGeometry x="10" y="10" width="150" height="30" as="geometry" />
        </mxCell>
        <mxCell id="1U01NzLirec5ID0dAkJI-16" value="Video Game" style="shape=table;startSize=30;container=1;collapsible=1;childLayout=tableLayout;fixedRows=1;rowLines=0;fontStyle=1;align=center;resizeLast=1;html=1;whiteSpace=wrap;" parent="1" vertex="1">
          <mxGeometry x="419" y="255" width="250" height="263" as="geometry" />
        </mxCell>
        <mxCell id="1U01NzLirec5ID0dAkJI-17" value="" style="shape=tableRow;horizontal=0;startSize=0;swimlaneHead=0;swimlaneBody=0;fillColor=none;collapsible=0;dropTarget=0;points=[[0,0.5],[1,0.5]];portConstraint=eastwest;top=0;left=0;right=0;bottom=0;html=1;" parent="1U01NzLirec5ID0dAkJI-16" vertex="1">
          <mxGeometry y="30" width="250" height="30" as="geometry" />
        </mxCell>
        <mxCell id="1U01NzLirec5ID0dAkJI-18" value="PK" style="shape=partialRectangle;connectable=0;fillColor=none;top=0;left=0;bottom=0;right=0;fontStyle=1;overflow=hidden;html=1;whiteSpace=wrap;" parent="1U01NzLirec5ID0dAkJI-17" vertex="1">
          <mxGeometry width="60" height="30" as="geometry">
            <mxRectangle width="60" height="30" as="alternateBounds" />
          </mxGeometry>
        </mxCell>
        <mxCell id="1U01NzLirec5ID0dAkJI-19" value="game_title [VARCHAR(50)]" style="shape=partialRectangle;connectable=0;fillColor=none;top=0;left=0;bottom=0;right=0;align=left;spacingLeft=6;fontStyle=5;overflow=hidden;html=1;whiteSpace=wrap;" parent="1U01NzLirec5ID0dAkJI-17" vertex="1">
          <mxGeometry x="60" width="190" height="30" as="geometry">
            <mxRectangle width="190" height="30" as="alternateBounds" />
          </mxGeometry>
        </mxCell>
        <mxCell id="1U01NzLirec5ID0dAkJI-20" value="" style="shape=tableRow;horizontal=0;startSize=0;swimlaneHead=0;swimlaneBody=0;fillColor=none;collapsible=0;dropTarget=0;points=[[0,0.5],[1,0.5]];portConstraint=eastwest;top=0;left=0;right=0;bottom=1;html=1;" parent="1U01NzLirec5ID0dAkJI-16" vertex="1">
          <mxGeometry y="60" width="250" height="30" as="geometry" />
        </mxCell>
        <mxCell id="1U01NzLirec5ID0dAkJI-21" value="FK1" style="shape=partialRectangle;connectable=0;fillColor=none;top=0;left=0;bottom=0;right=0;fontStyle=1;overflow=hidden;html=1;whiteSpace=wrap;" parent="1U01NzLirec5ID0dAkJI-20" vertex="1">
          <mxGeometry width="60" height="30" as="geometry">
            <mxRectangle width="60" height="30" as="alternateBounds" />
          </mxGeometry>
        </mxCell>
        <mxCell id="1U01NzLirec5ID0dAkJI-22" value="dev_name [VARCHAR(50)]" style="shape=partialRectangle;connectable=0;fillColor=none;top=0;left=0;bottom=0;right=0;align=left;spacingLeft=6;fontStyle=5;overflow=hidden;html=1;whiteSpace=wrap;" parent="1U01NzLirec5ID0dAkJI-20" vertex="1">
          <mxGeometry x="60" width="190" height="30" as="geometry">
            <mxRectangle width="190" height="30" as="alternateBounds" />
          </mxGeometry>
        </mxCell>
        <mxCell id="1U01NzLirec5ID0dAkJI-23" value="" style="shape=tableRow;horizontal=0;startSize=0;swimlaneHead=0;swimlaneBody=0;fillColor=none;collapsible=0;dropTarget=0;points=[[0,0.5],[1,0.5]];portConstraint=eastwest;top=0;left=0;right=0;bottom=0;html=1;" parent="1U01NzLirec5ID0dAkJI-16" vertex="1">
          <mxGeometry y="90" width="250" height="30" as="geometry" />
        </mxCell>
        <mxCell id="1U01NzLirec5ID0dAkJI-24" value="" style="shape=partialRectangle;connectable=0;fillColor=none;top=0;left=0;bottom=0;right=0;editable=1;overflow=hidden;html=1;whiteSpace=wrap;" parent="1U01NzLirec5ID0dAkJI-23" vertex="1">
          <mxGeometry width="60" height="30" as="geometry">
            <mxRectangle width="60" height="30" as="alternateBounds" />
          </mxGeometry>
        </mxCell>
        <mxCell id="1U01NzLirec5ID0dAkJI-25" value="price [SMALLMONEY]" style="shape=partialRectangle;connectable=0;fillColor=none;top=0;left=0;bottom=0;right=0;align=left;spacingLeft=6;overflow=hidden;html=1;whiteSpace=wrap;" parent="1U01NzLirec5ID0dAkJI-23" vertex="1">
          <mxGeometry x="60" width="190" height="30" as="geometry">
            <mxRectangle width="190" height="30" as="alternateBounds" />
          </mxGeometry>
        </mxCell>
        <mxCell id="1U01NzLirec5ID0dAkJI-26" value="" style="shape=tableRow;horizontal=0;startSize=0;swimlaneHead=0;swimlaneBody=0;fillColor=none;collapsible=0;dropTarget=0;points=[[0,0.5],[1,0.5]];portConstraint=eastwest;top=0;left=0;right=0;bottom=0;html=1;" parent="1U01NzLirec5ID0dAkJI-16" vertex="1">
          <mxGeometry y="120" width="250" height="143" as="geometry" />
        </mxCell>
        <mxCell id="1U01NzLirec5ID0dAkJI-27" value="" style="shape=partialRectangle;connectable=0;fillColor=none;top=0;left=0;bottom=0;right=0;editable=1;overflow=hidden;html=1;whiteSpace=wrap;" parent="1U01NzLirec5ID0dAkJI-26" vertex="1">
          <mxGeometry width="60" height="143" as="geometry">
            <mxRectangle width="60" height="143" as="alternateBounds" />
          </mxGeometry>
        </mxCell>
        <mxCell id="1U01NzLirec5ID0dAkJI-28" value="release_date [DATE]&lt;br&gt;&lt;br&gt;genre1 [VARCHAR(50)]&lt;br&gt;&lt;br&gt;genre2 [VARCHAR(50)]&lt;br&gt;&lt;br&gt;genre3 [VARCHAR(50)]&lt;br&gt;&lt;br&gt;ESRB_rating [VARCHAR(50)]" style="shape=partialRectangle;connectable=0;fillColor=none;top=0;left=0;bottom=0;right=0;align=left;spacingLeft=6;overflow=hidden;html=1;whiteSpace=wrap;" parent="1U01NzLirec5ID0dAkJI-26" vertex="1">
          <mxGeometry x="60" width="190" height="143" as="geometry">
            <mxRectangle width="190" height="143" as="alternateBounds" />
          </mxGeometry>
        </mxCell>
        <mxCell id="1U01NzLirec5ID0dAkJI-29" value="" style="edgeStyle=entityRelationEdgeStyle;fontSize=12;html=1;endArrow=ERmany;rounded=0;exitX=1;exitY=0.25;exitDx=0;exitDy=0;entryX=0;entryY=0.5;entryDx=0;entryDy=0;" parent="1" source="1U01NzLirec5ID0dAkJI-1" target="1U01NzLirec5ID0dAkJI-17" edge="1">
          <mxGeometry width="100" height="100" relative="1" as="geometry">
            <mxPoint x="319" y="535" as="sourcePoint" />
            <mxPoint x="419" y="435" as="targetPoint" />
          </mxGeometry>
        </mxCell>
        <mxCell id="ZNkEy4uUX-2XDN_SYzyk-1" value="Functionality" style="shape=table;startSize=30;container=1;collapsible=1;childLayout=tableLayout;fixedRows=1;rowLines=0;fontStyle=1;align=center;resizeLast=1;html=1;whiteSpace=wrap;" parent="1" vertex="1">
          <mxGeometry x="29" y="60" width="219" height="160" as="geometry" />
        </mxCell>
        <mxCell id="ZNkEy4uUX-2XDN_SYzyk-2" value="" style="shape=tableRow;horizontal=0;startSize=0;swimlaneHead=0;swimlaneBody=0;fillColor=none;collapsible=0;dropTarget=0;points=[[0,0.5],[1,0.5]];portConstraint=eastwest;top=0;left=0;right=0;bottom=0;html=1;" parent="ZNkEy4uUX-2XDN_SYzyk-1" vertex="1">
          <mxGeometry y="30" width="219" height="30" as="geometry" />
        </mxCell>
        <mxCell id="ZNkEy4uUX-2XDN_SYzyk-3" value="PK" style="shape=partialRectangle;connectable=0;fillColor=none;top=0;left=0;bottom=0;right=0;fontStyle=1;overflow=hidden;html=1;whiteSpace=wrap;" parent="ZNkEy4uUX-2XDN_SYzyk-2" vertex="1">
          <mxGeometry width="60" height="30" as="geometry">
            <mxRectangle width="60" height="30" as="alternateBounds" />
          </mxGeometry>
        </mxCell>
        <mxCell id="ZNkEy4uUX-2XDN_SYzyk-4" value="func_id [SMALLINT]" style="shape=partialRectangle;connectable=0;fillColor=none;top=0;left=0;bottom=0;right=0;align=left;spacingLeft=6;fontStyle=5;overflow=hidden;html=1;whiteSpace=wrap;" parent="ZNkEy4uUX-2XDN_SYzyk-2" vertex="1">
          <mxGeometry x="60" width="159" height="30" as="geometry">
            <mxRectangle width="159" height="30" as="alternateBounds" />
          </mxGeometry>
        </mxCell>
        <mxCell id="ZNkEy4uUX-2XDN_SYzyk-5" value="" style="shape=tableRow;horizontal=0;startSize=0;swimlaneHead=0;swimlaneBody=0;fillColor=none;collapsible=0;dropTarget=0;points=[[0,0.5],[1,0.5]];portConstraint=eastwest;top=0;left=0;right=0;bottom=1;html=1;" parent="ZNkEy4uUX-2XDN_SYzyk-1" vertex="1">
          <mxGeometry y="60" width="219" height="20" as="geometry" />
        </mxCell>
        <mxCell id="ZNkEy4uUX-2XDN_SYzyk-6" value="" style="shape=partialRectangle;connectable=0;fillColor=none;top=0;left=0;bottom=0;right=0;fontStyle=1;overflow=hidden;html=1;whiteSpace=wrap;" parent="ZNkEy4uUX-2XDN_SYzyk-5" vertex="1">
          <mxGeometry width="60" height="20" as="geometry">
            <mxRectangle width="60" height="20" as="alternateBounds" />
          </mxGeometry>
        </mxCell>
        <mxCell id="ZNkEy4uUX-2XDN_SYzyk-7" value="" style="shape=partialRectangle;connectable=0;fillColor=none;top=0;left=0;bottom=0;right=0;align=left;spacingLeft=6;fontStyle=5;overflow=hidden;html=1;whiteSpace=wrap;" parent="ZNkEy4uUX-2XDN_SYzyk-5" vertex="1">
          <mxGeometry x="60" width="159" height="20" as="geometry">
            <mxRectangle width="159" height="20" as="alternateBounds" />
          </mxGeometry>
        </mxCell>
        <mxCell id="ZNkEy4uUX-2XDN_SYzyk-8" value="" style="shape=tableRow;horizontal=0;startSize=0;swimlaneHead=0;swimlaneBody=0;fillColor=none;collapsible=0;dropTarget=0;points=[[0,0.5],[1,0.5]];portConstraint=eastwest;top=0;left=0;right=0;bottom=0;html=1;" parent="ZNkEy4uUX-2XDN_SYzyk-1" vertex="1">
          <mxGeometry y="80" width="219" height="30" as="geometry" />
        </mxCell>
        <mxCell id="ZNkEy4uUX-2XDN_SYzyk-9" value="" style="shape=partialRectangle;connectable=0;fillColor=none;top=0;left=0;bottom=0;right=0;editable=1;overflow=hidden;html=1;whiteSpace=wrap;" parent="ZNkEy4uUX-2XDN_SYzyk-8" vertex="1">
          <mxGeometry width="60" height="30" as="geometry">
            <mxRectangle width="60" height="30" as="alternateBounds" />
          </mxGeometry>
        </mxCell>
        <mxCell id="ZNkEy4uUX-2XDN_SYzyk-10" value="func_type [VARCHAR(50)]" style="shape=partialRectangle;connectable=0;fillColor=none;top=0;left=0;bottom=0;right=0;align=left;spacingLeft=6;overflow=hidden;html=1;whiteSpace=wrap;" parent="ZNkEy4uUX-2XDN_SYzyk-8" vertex="1">
          <mxGeometry x="60" width="159" height="30" as="geometry">
            <mxRectangle width="159" height="30" as="alternateBounds" />
          </mxGeometry>
        </mxCell>
        <mxCell id="ZNkEy4uUX-2XDN_SYzyk-11" value="" style="shape=tableRow;horizontal=0;startSize=0;swimlaneHead=0;swimlaneBody=0;fillColor=none;collapsible=0;dropTarget=0;points=[[0,0.5],[1,0.5]];portConstraint=eastwest;top=0;left=0;right=0;bottom=0;html=1;" parent="ZNkEy4uUX-2XDN_SYzyk-1" vertex="1">
          <mxGeometry y="110" width="219" height="50" as="geometry" />
        </mxCell>
        <mxCell id="ZNkEy4uUX-2XDN_SYzyk-12" value="" style="shape=partialRectangle;connectable=0;fillColor=none;top=0;left=0;bottom=0;right=0;editable=1;overflow=hidden;html=1;whiteSpace=wrap;" parent="ZNkEy4uUX-2XDN_SYzyk-11" vertex="1">
          <mxGeometry width="60" height="50" as="geometry">
            <mxRectangle width="60" height="50" as="alternateBounds" />
          </mxGeometry>
        </mxCell>
        <mxCell id="ZNkEy4uUX-2XDN_SYzyk-13" value="players_min (SMALLINT)&lt;br&gt;&lt;br&gt;players_max (SMALLINT)" style="shape=partialRectangle;connectable=0;fillColor=none;top=0;left=0;bottom=0;right=0;align=left;spacingLeft=6;overflow=hidden;html=1;whiteSpace=wrap;" parent="ZNkEy4uUX-2XDN_SYzyk-11" vertex="1">
          <mxGeometry x="60" width="159" height="50" as="geometry">
            <mxRectangle width="159" height="50" as="alternateBounds" />
          </mxGeometry>
        </mxCell>
        <mxCell id="ZNkEy4uUX-2XDN_SYzyk-30" style="edgeStyle=orthogonalEdgeStyle;rounded=0;orthogonalLoop=1;jettySize=auto;html=1;exitX=1;exitY=0.5;exitDx=0;exitDy=0;" parent="ZNkEy4uUX-2XDN_SYzyk-1" source="ZNkEy4uUX-2XDN_SYzyk-11" target="ZNkEy4uUX-2XDN_SYzyk-11" edge="1">
          <mxGeometry relative="1" as="geometry" />
        </mxCell>
        <mxCell id="ZNkEy4uUX-2XDN_SYzyk-32" style="edgeStyle=orthogonalEdgeStyle;rounded=0;orthogonalLoop=1;jettySize=auto;html=1;exitX=1;exitY=0.5;exitDx=0;exitDy=0;" parent="ZNkEy4uUX-2XDN_SYzyk-1" source="ZNkEy4uUX-2XDN_SYzyk-11" target="ZNkEy4uUX-2XDN_SYzyk-11" edge="1">
          <mxGeometry relative="1" as="geometry" />
        </mxCell>
        <mxCell id="lrU0WjZHBcrN_17cEXnk-1" value="Consumer" style="shape=table;startSize=30;container=1;collapsible=1;childLayout=tableLayout;fixedRows=1;rowLines=0;fontStyle=1;align=center;resizeLast=1;html=1;whiteSpace=wrap;" parent="1" vertex="1">
          <mxGeometry x="609" y="897" width="250" height="193" as="geometry" />
        </mxCell>
        <mxCell id="lrU0WjZHBcrN_17cEXnk-2" value="" style="shape=tableRow;horizontal=0;startSize=0;swimlaneHead=0;swimlaneBody=0;fillColor=none;collapsible=0;dropTarget=0;points=[[0,0.5],[1,0.5]];portConstraint=eastwest;top=0;left=0;right=0;bottom=0;html=1;" parent="lrU0WjZHBcrN_17cEXnk-1" vertex="1">
          <mxGeometry y="30" width="250" height="30" as="geometry" />
        </mxCell>
        <mxCell id="lrU0WjZHBcrN_17cEXnk-3" value="PK" style="shape=partialRectangle;connectable=0;fillColor=none;top=0;left=0;bottom=0;right=0;fontStyle=1;overflow=hidden;html=1;whiteSpace=wrap;" parent="lrU0WjZHBcrN_17cEXnk-2" vertex="1">
          <mxGeometry width="60" height="30" as="geometry">
            <mxRectangle width="60" height="30" as="alternateBounds" />
          </mxGeometry>
        </mxCell>
        <mxCell id="lrU0WjZHBcrN_17cEXnk-4" value="username [VARCHAR(50)]" style="shape=partialRectangle;connectable=0;fillColor=none;top=0;left=0;bottom=0;right=0;align=left;spacingLeft=6;fontStyle=5;overflow=hidden;html=1;whiteSpace=wrap;" parent="lrU0WjZHBcrN_17cEXnk-2" vertex="1">
          <mxGeometry x="60" width="190" height="30" as="geometry">
            <mxRectangle width="190" height="30" as="alternateBounds" />
          </mxGeometry>
        </mxCell>
        <mxCell id="lrU0WjZHBcrN_17cEXnk-5" value="" style="shape=tableRow;horizontal=0;startSize=0;swimlaneHead=0;swimlaneBody=0;fillColor=none;collapsible=0;dropTarget=0;points=[[0,0.5],[1,0.5]];portConstraint=eastwest;top=0;left=0;right=0;bottom=1;html=1;" parent="lrU0WjZHBcrN_17cEXnk-1" vertex="1">
          <mxGeometry y="60" width="250" height="20" as="geometry" />
        </mxCell>
        <mxCell id="lrU0WjZHBcrN_17cEXnk-6" value="" style="shape=partialRectangle;connectable=0;fillColor=none;top=0;left=0;bottom=0;right=0;fontStyle=1;overflow=hidden;html=1;whiteSpace=wrap;" parent="lrU0WjZHBcrN_17cEXnk-5" vertex="1">
          <mxGeometry width="60" height="20" as="geometry">
            <mxRectangle width="60" height="20" as="alternateBounds" />
          </mxGeometry>
        </mxCell>
        <mxCell id="lrU0WjZHBcrN_17cEXnk-7" value="" style="shape=partialRectangle;connectable=0;fillColor=none;top=0;left=0;bottom=0;right=0;align=left;spacingLeft=6;fontStyle=5;overflow=hidden;html=1;whiteSpace=wrap;" parent="lrU0WjZHBcrN_17cEXnk-5" vertex="1">
          <mxGeometry x="60" width="190" height="20" as="geometry">
            <mxRectangle width="190" height="20" as="alternateBounds" />
          </mxGeometry>
        </mxCell>
        <mxCell id="lrU0WjZHBcrN_17cEXnk-8" value="" style="shape=tableRow;horizontal=0;startSize=0;swimlaneHead=0;swimlaneBody=0;fillColor=none;collapsible=0;dropTarget=0;points=[[0,0.5],[1,0.5]];portConstraint=eastwest;top=0;left=0;right=0;bottom=0;html=1;" parent="lrU0WjZHBcrN_17cEXnk-1" vertex="1">
          <mxGeometry y="80" width="250" height="30" as="geometry" />
        </mxCell>
        <mxCell id="lrU0WjZHBcrN_17cEXnk-9" value="" style="shape=partialRectangle;connectable=0;fillColor=none;top=0;left=0;bottom=0;right=0;editable=1;overflow=hidden;html=1;whiteSpace=wrap;" parent="lrU0WjZHBcrN_17cEXnk-8" vertex="1">
          <mxGeometry width="60" height="30" as="geometry">
            <mxRectangle width="60" height="30" as="alternateBounds" />
          </mxGeometry>
        </mxCell>
        <mxCell id="lrU0WjZHBcrN_17cEXnk-10" value="first_name [VARCHAR(50)]" style="shape=partialRectangle;connectable=0;fillColor=none;top=0;left=0;bottom=0;right=0;align=left;spacingLeft=6;overflow=hidden;html=1;whiteSpace=wrap;" parent="lrU0WjZHBcrN_17cEXnk-8" vertex="1">
          <mxGeometry x="60" width="190" height="30" as="geometry">
            <mxRectangle width="190" height="30" as="alternateBounds" />
          </mxGeometry>
        </mxCell>
        <mxCell id="lrU0WjZHBcrN_17cEXnk-11" value="" style="shape=tableRow;horizontal=0;startSize=0;swimlaneHead=0;swimlaneBody=0;fillColor=none;collapsible=0;dropTarget=0;points=[[0,0.5],[1,0.5]];portConstraint=eastwest;top=0;left=0;right=0;bottom=0;html=1;" parent="lrU0WjZHBcrN_17cEXnk-1" vertex="1">
          <mxGeometry y="110" width="250" height="83" as="geometry" />
        </mxCell>
        <mxCell id="lrU0WjZHBcrN_17cEXnk-12" value="" style="shape=partialRectangle;connectable=0;fillColor=none;top=0;left=0;bottom=0;right=0;editable=1;overflow=hidden;html=1;whiteSpace=wrap;" parent="lrU0WjZHBcrN_17cEXnk-11" vertex="1">
          <mxGeometry width="60" height="83" as="geometry">
            <mxRectangle width="60" height="83" as="alternateBounds" />
          </mxGeometry>
        </mxCell>
        <mxCell id="lrU0WjZHBcrN_17cEXnk-13" value="last_name [VARCHAR(50)]&lt;br&gt;&lt;br&gt;gold_points [SMALLINT]&lt;br&gt;&lt;br&gt;fav_genre [VARCHAR(50)]" style="shape=partialRectangle;connectable=0;fillColor=none;top=0;left=0;bottom=0;right=0;align=left;spacingLeft=6;overflow=hidden;html=1;whiteSpace=wrap;" parent="lrU0WjZHBcrN_17cEXnk-11" vertex="1">
          <mxGeometry x="60" width="190" height="83" as="geometry">
            <mxRectangle width="190" height="83" as="alternateBounds" />
          </mxGeometry>
        </mxCell>
        <mxCell id="lrU0WjZHBcrN_17cEXnk-14" value="Game Bundle" style="shape=table;startSize=30;container=1;collapsible=1;childLayout=tableLayout;fixedRows=1;rowLines=0;fontStyle=1;align=center;resizeLast=1;html=1;whiteSpace=wrap;" parent="1" vertex="1">
          <mxGeometry x="369" y="775" width="230" height="180" as="geometry" />
        </mxCell>
        <mxCell id="lrU0WjZHBcrN_17cEXnk-15" value="" style="shape=tableRow;horizontal=0;startSize=0;swimlaneHead=0;swimlaneBody=0;fillColor=none;collapsible=0;dropTarget=0;points=[[0,0.5],[1,0.5]];portConstraint=eastwest;top=0;left=0;right=0;bottom=0;html=1;" parent="lrU0WjZHBcrN_17cEXnk-14" vertex="1">
          <mxGeometry y="30" width="230" height="30" as="geometry" />
        </mxCell>
        <mxCell id="lrU0WjZHBcrN_17cEXnk-16" value="PK" style="shape=partialRectangle;connectable=0;fillColor=none;top=0;left=0;bottom=0;right=0;fontStyle=1;overflow=hidden;html=1;whiteSpace=wrap;" parent="lrU0WjZHBcrN_17cEXnk-15" vertex="1">
          <mxGeometry width="60" height="30" as="geometry">
            <mxRectangle width="60" height="30" as="alternateBounds" />
          </mxGeometry>
        </mxCell>
        <mxCell id="lrU0WjZHBcrN_17cEXnk-17" value="bundle_title [VARCHAR(50)]" style="shape=partialRectangle;connectable=0;fillColor=none;top=0;left=0;bottom=0;right=0;align=left;spacingLeft=6;fontStyle=5;overflow=hidden;html=1;whiteSpace=wrap;" parent="lrU0WjZHBcrN_17cEXnk-15" vertex="1">
          <mxGeometry x="60" width="170" height="30" as="geometry">
            <mxRectangle width="170" height="30" as="alternateBounds" />
          </mxGeometry>
        </mxCell>
        <mxCell id="lrU0WjZHBcrN_17cEXnk-18" value="" style="shape=tableRow;horizontal=0;startSize=0;swimlaneHead=0;swimlaneBody=0;fillColor=none;collapsible=0;dropTarget=0;points=[[0,0.5],[1,0.5]];portConstraint=eastwest;top=0;left=0;right=0;bottom=1;html=1;" parent="lrU0WjZHBcrN_17cEXnk-14" vertex="1">
          <mxGeometry y="60" width="230" height="30" as="geometry" />
        </mxCell>
        <mxCell id="lrU0WjZHBcrN_17cEXnk-19" value="FK1" style="shape=partialRectangle;connectable=0;fillColor=none;top=0;left=0;bottom=0;right=0;fontStyle=1;overflow=hidden;html=1;whiteSpace=wrap;" parent="lrU0WjZHBcrN_17cEXnk-18" vertex="1">
          <mxGeometry width="60" height="30" as="geometry">
            <mxRectangle width="60" height="30" as="alternateBounds" />
          </mxGeometry>
        </mxCell>
        <mxCell id="lrU0WjZHBcrN_17cEXnk-20" value="dev_name [VARCHAR(50)]" style="shape=partialRectangle;connectable=0;fillColor=none;top=0;left=0;bottom=0;right=0;align=left;spacingLeft=6;fontStyle=5;overflow=hidden;html=1;whiteSpace=wrap;" parent="lrU0WjZHBcrN_17cEXnk-18" vertex="1">
          <mxGeometry x="60" width="170" height="30" as="geometry">
            <mxRectangle width="170" height="30" as="alternateBounds" />
          </mxGeometry>
        </mxCell>
        <mxCell id="lrU0WjZHBcrN_17cEXnk-21" value="" style="shape=tableRow;horizontal=0;startSize=0;swimlaneHead=0;swimlaneBody=0;fillColor=none;collapsible=0;dropTarget=0;points=[[0,0.5],[1,0.5]];portConstraint=eastwest;top=0;left=0;right=0;bottom=0;html=1;" parent="lrU0WjZHBcrN_17cEXnk-14" vertex="1">
          <mxGeometry y="90" width="230" height="30" as="geometry" />
        </mxCell>
        <mxCell id="lrU0WjZHBcrN_17cEXnk-22" value="" style="shape=partialRectangle;connectable=0;fillColor=none;top=0;left=0;bottom=0;right=0;editable=1;overflow=hidden;html=1;whiteSpace=wrap;" parent="lrU0WjZHBcrN_17cEXnk-21" vertex="1">
          <mxGeometry width="60" height="30" as="geometry">
            <mxRectangle width="60" height="30" as="alternateBounds" />
          </mxGeometry>
        </mxCell>
        <mxCell id="lrU0WjZHBcrN_17cEXnk-23" value="price [SMALLMONEY]" style="shape=partialRectangle;connectable=0;fillColor=none;top=0;left=0;bottom=0;right=0;align=left;spacingLeft=6;overflow=hidden;html=1;whiteSpace=wrap;" parent="lrU0WjZHBcrN_17cEXnk-21" vertex="1">
          <mxGeometry x="60" width="170" height="30" as="geometry">
            <mxRectangle width="170" height="30" as="alternateBounds" />
          </mxGeometry>
        </mxCell>
        <mxCell id="lrU0WjZHBcrN_17cEXnk-24" value="" style="shape=tableRow;horizontal=0;startSize=0;swimlaneHead=0;swimlaneBody=0;fillColor=none;collapsible=0;dropTarget=0;points=[[0,0.5],[1,0.5]];portConstraint=eastwest;top=0;left=0;right=0;bottom=0;html=1;" parent="lrU0WjZHBcrN_17cEXnk-14" vertex="1">
          <mxGeometry y="120" width="230" height="60" as="geometry" />
        </mxCell>
        <mxCell id="lrU0WjZHBcrN_17cEXnk-25" value="" style="shape=partialRectangle;connectable=0;fillColor=none;top=0;left=0;bottom=0;right=0;editable=1;overflow=hidden;html=1;whiteSpace=wrap;" parent="lrU0WjZHBcrN_17cEXnk-24" vertex="1">
          <mxGeometry width="60" height="60" as="geometry">
            <mxRectangle width="60" height="60" as="alternateBounds" />
          </mxGeometry>
        </mxCell>
        <mxCell id="lrU0WjZHBcrN_17cEXnk-26" value="release_date [DATE]&lt;br&gt;&lt;br&gt;ESRB_rating [VARCHAR(50)]" style="shape=partialRectangle;connectable=0;fillColor=none;top=0;left=0;bottom=0;right=0;align=left;spacingLeft=6;overflow=hidden;html=1;whiteSpace=wrap;" parent="lrU0WjZHBcrN_17cEXnk-24" vertex="1">
          <mxGeometry x="60" width="170" height="60" as="geometry">
            <mxRectangle width="170" height="60" as="alternateBounds" />
          </mxGeometry>
        </mxCell>
        <mxCell id="lrU0WjZHBcrN_17cEXnk-27" value="DLC" style="shape=table;startSize=30;container=1;collapsible=1;childLayout=tableLayout;fixedRows=1;rowLines=0;fontStyle=1;align=center;resizeLast=1;html=1;whiteSpace=wrap;" parent="1" vertex="1">
          <mxGeometry x="29" y="415" width="240" height="220" as="geometry" />
        </mxCell>
        <mxCell id="lrU0WjZHBcrN_17cEXnk-28" value="" style="shape=tableRow;horizontal=0;startSize=0;swimlaneHead=0;swimlaneBody=0;fillColor=none;collapsible=0;dropTarget=0;points=[[0,0.5],[1,0.5]];portConstraint=eastwest;top=0;left=0;right=0;bottom=0;html=1;" parent="lrU0WjZHBcrN_17cEXnk-27" vertex="1">
          <mxGeometry y="30" width="240" height="30" as="geometry" />
        </mxCell>
        <mxCell id="lrU0WjZHBcrN_17cEXnk-29" value="PK" style="shape=partialRectangle;connectable=0;fillColor=none;top=0;left=0;bottom=0;right=0;fontStyle=1;overflow=hidden;html=1;whiteSpace=wrap;" parent="lrU0WjZHBcrN_17cEXnk-28" vertex="1">
          <mxGeometry width="60" height="30" as="geometry">
            <mxRectangle width="60" height="30" as="alternateBounds" />
          </mxGeometry>
        </mxCell>
        <mxCell id="lrU0WjZHBcrN_17cEXnk-30" value="DLC_title [VARCHAR(50)]" style="shape=partialRectangle;connectable=0;fillColor=none;top=0;left=0;bottom=0;right=0;align=left;spacingLeft=6;fontStyle=5;overflow=hidden;html=1;whiteSpace=wrap;" parent="lrU0WjZHBcrN_17cEXnk-28" vertex="1">
          <mxGeometry x="60" width="180" height="30" as="geometry">
            <mxRectangle width="180" height="30" as="alternateBounds" />
          </mxGeometry>
        </mxCell>
        <mxCell id="lrU0WjZHBcrN_17cEXnk-31" value="" style="shape=tableRow;horizontal=0;startSize=0;swimlaneHead=0;swimlaneBody=0;fillColor=none;collapsible=0;dropTarget=0;points=[[0,0.5],[1,0.5]];portConstraint=eastwest;top=0;left=0;right=0;bottom=1;html=1;" parent="lrU0WjZHBcrN_17cEXnk-27" vertex="1">
          <mxGeometry y="60" width="240" height="60" as="geometry" />
        </mxCell>
        <mxCell id="lrU0WjZHBcrN_17cEXnk-32" value="FK1&lt;br&gt;&lt;br&gt;FK2" style="shape=partialRectangle;connectable=0;fillColor=none;top=0;left=0;bottom=0;right=0;fontStyle=1;overflow=hidden;html=1;whiteSpace=wrap;" parent="lrU0WjZHBcrN_17cEXnk-31" vertex="1">
          <mxGeometry width="60" height="60" as="geometry">
            <mxRectangle width="60" height="60" as="alternateBounds" />
          </mxGeometry>
        </mxCell>
        <mxCell id="lrU0WjZHBcrN_17cEXnk-33" value="game_title [VARCHAR(50)]&lt;br&gt;&lt;br&gt;dev_name [VARCHAR(50)]" style="shape=partialRectangle;connectable=0;fillColor=none;top=0;left=0;bottom=0;right=0;align=left;spacingLeft=6;fontStyle=5;overflow=hidden;html=1;whiteSpace=wrap;" parent="lrU0WjZHBcrN_17cEXnk-31" vertex="1">
          <mxGeometry x="60" width="180" height="60" as="geometry">
            <mxRectangle width="180" height="60" as="alternateBounds" />
          </mxGeometry>
        </mxCell>
        <mxCell id="lrU0WjZHBcrN_17cEXnk-34" value="" style="shape=tableRow;horizontal=0;startSize=0;swimlaneHead=0;swimlaneBody=0;fillColor=none;collapsible=0;dropTarget=0;points=[[0,0.5],[1,0.5]];portConstraint=eastwest;top=0;left=0;right=0;bottom=0;html=1;" parent="lrU0WjZHBcrN_17cEXnk-27" vertex="1">
          <mxGeometry y="120" width="240" height="30" as="geometry" />
        </mxCell>
        <mxCell id="lrU0WjZHBcrN_17cEXnk-35" value="" style="shape=partialRectangle;connectable=0;fillColor=none;top=0;left=0;bottom=0;right=0;editable=1;overflow=hidden;html=1;whiteSpace=wrap;" parent="lrU0WjZHBcrN_17cEXnk-34" vertex="1">
          <mxGeometry width="60" height="30" as="geometry">
            <mxRectangle width="60" height="30" as="alternateBounds" />
          </mxGeometry>
        </mxCell>
        <mxCell id="lrU0WjZHBcrN_17cEXnk-36" value="price [SMALLMONEY]" style="shape=partialRectangle;connectable=0;fillColor=none;top=0;left=0;bottom=0;right=0;align=left;spacingLeft=6;overflow=hidden;html=1;whiteSpace=wrap;" parent="lrU0WjZHBcrN_17cEXnk-34" vertex="1">
          <mxGeometry x="60" width="180" height="30" as="geometry">
            <mxRectangle width="180" height="30" as="alternateBounds" />
          </mxGeometry>
        </mxCell>
        <mxCell id="lrU0WjZHBcrN_17cEXnk-37" value="" style="shape=tableRow;horizontal=0;startSize=0;swimlaneHead=0;swimlaneBody=0;fillColor=none;collapsible=0;dropTarget=0;points=[[0,0.5],[1,0.5]];portConstraint=eastwest;top=0;left=0;right=0;bottom=0;html=1;" parent="lrU0WjZHBcrN_17cEXnk-27" vertex="1">
          <mxGeometry y="150" width="240" height="70" as="geometry" />
        </mxCell>
        <mxCell id="lrU0WjZHBcrN_17cEXnk-38" value="" style="shape=partialRectangle;connectable=0;fillColor=none;top=0;left=0;bottom=0;right=0;editable=1;overflow=hidden;html=1;whiteSpace=wrap;" parent="lrU0WjZHBcrN_17cEXnk-37" vertex="1">
          <mxGeometry width="60" height="70" as="geometry">
            <mxRectangle width="60" height="70" as="alternateBounds" />
          </mxGeometry>
        </mxCell>
        <mxCell id="lrU0WjZHBcrN_17cEXnk-39" value="release_date [DATE]&lt;br&gt;&lt;br&gt;ESRB_rating [VARCHAR(50)]" style="shape=partialRectangle;connectable=0;fillColor=none;top=0;left=0;bottom=0;right=0;align=left;spacingLeft=6;overflow=hidden;html=1;whiteSpace=wrap;" parent="lrU0WjZHBcrN_17cEXnk-37" vertex="1">
          <mxGeometry x="60" width="180" height="70" as="geometry">
            <mxRectangle width="180" height="70" as="alternateBounds" />
          </mxGeometry>
        </mxCell>
        <mxCell id="lrU0WjZHBcrN_17cEXnk-41" value="" style="edgeStyle=entityRelationEdgeStyle;fontSize=12;html=1;endArrow=ERmany;rounded=0;exitX=0;exitY=0.5;exitDx=0;exitDy=0;entryX=1;entryY=0.5;entryDx=0;entryDy=0;" parent="1" source="1U01NzLirec5ID0dAkJI-23" target="lrU0WjZHBcrN_17cEXnk-28" edge="1">
          <mxGeometry width="100" height="100" relative="1" as="geometry">
            <mxPoint x="379" y="545" as="sourcePoint" />
            <mxPoint x="349" y="675" as="targetPoint" />
          </mxGeometry>
        </mxCell>
        <mxCell id="lrU0WjZHBcrN_17cEXnk-45" value="" style="edgeStyle=entityRelationEdgeStyle;fontSize=12;html=1;endArrow=ERmany;rounded=0;exitX=1;exitY=0.5;exitDx=0;exitDy=0;entryX=0;entryY=0.25;entryDx=0;entryDy=0;" parent="1" source="1U01NzLirec5ID0dAkJI-5" target="lrU0WjZHBcrN_17cEXnk-14" edge="1">
          <mxGeometry width="100" height="100" relative="1" as="geometry">
            <mxPoint x="339" y="515" as="sourcePoint" />
            <mxPoint x="439" y="415" as="targetPoint" />
          </mxGeometry>
        </mxCell>
        <mxCell id="lrU0WjZHBcrN_17cEXnk-46" value="" style="fontSize=12;html=1;endArrow=ERmany;rounded=0;entryX=0;entryY=0.5;entryDx=0;entryDy=0;exitX=0;exitY=0.5;exitDx=0;exitDy=0;edgeStyle=orthogonalEdgeStyle;" parent="1" source="1U01NzLirec5ID0dAkJI-5" target="lrU0WjZHBcrN_17cEXnk-31" edge="1">
          <mxGeometry width="100" height="100" relative="1" as="geometry">
            <mxPoint x="219" y="673" as="sourcePoint" />
            <mxPoint x="329" y="603" as="targetPoint" />
          </mxGeometry>
        </mxCell>
        <mxCell id="lrU0WjZHBcrN_17cEXnk-47" value="VideoGametoConsumer" style="shape=table;startSize=30;container=1;collapsible=1;childLayout=tableLayout;fixedRows=1;rowLines=0;fontStyle=1;align=center;resizeLast=1;html=1;whiteSpace=wrap;" parent="1" vertex="1">
          <mxGeometry x="719" y="305" width="180" height="140" as="geometry" />
        </mxCell>
        <mxCell id="lrU0WjZHBcrN_17cEXnk-48" value="" style="shape=tableRow;horizontal=0;startSize=0;swimlaneHead=0;swimlaneBody=0;fillColor=none;collapsible=0;dropTarget=0;points=[[0,0.5],[1,0.5]];portConstraint=eastwest;top=0;left=0;right=0;bottom=0;html=1;" parent="lrU0WjZHBcrN_17cEXnk-47" vertex="1">
          <mxGeometry y="30" width="180" height="30" as="geometry" />
        </mxCell>
        <mxCell id="lrU0WjZHBcrN_17cEXnk-49" value="PK1" style="shape=partialRectangle;connectable=0;fillColor=none;top=0;left=0;bottom=0;right=0;fontStyle=1;overflow=hidden;html=1;whiteSpace=wrap;" parent="lrU0WjZHBcrN_17cEXnk-48" vertex="1">
          <mxGeometry width="60" height="30" as="geometry">
            <mxRectangle width="60" height="30" as="alternateBounds" />
          </mxGeometry>
        </mxCell>
        <mxCell id="lrU0WjZHBcrN_17cEXnk-50" value="game_title [VARCHAR(50)]" style="shape=partialRectangle;connectable=0;fillColor=none;top=0;left=0;bottom=0;right=0;align=left;spacingLeft=6;fontStyle=5;overflow=hidden;html=1;whiteSpace=wrap;" parent="lrU0WjZHBcrN_17cEXnk-48" vertex="1">
          <mxGeometry x="60" width="120" height="30" as="geometry">
            <mxRectangle width="120" height="30" as="alternateBounds" />
          </mxGeometry>
        </mxCell>
        <mxCell id="lrU0WjZHBcrN_17cEXnk-51" value="" style="shape=tableRow;horizontal=0;startSize=0;swimlaneHead=0;swimlaneBody=0;fillColor=none;collapsible=0;dropTarget=0;points=[[0,0.5],[1,0.5]];portConstraint=eastwest;top=0;left=0;right=0;bottom=1;html=1;" parent="lrU0WjZHBcrN_17cEXnk-47" vertex="1">
          <mxGeometry y="60" width="180" height="30" as="geometry" />
        </mxCell>
        <mxCell id="lrU0WjZHBcrN_17cEXnk-52" value="PK2" style="shape=partialRectangle;connectable=0;fillColor=none;top=0;left=0;bottom=0;right=0;fontStyle=1;overflow=hidden;html=1;whiteSpace=wrap;" parent="lrU0WjZHBcrN_17cEXnk-51" vertex="1">
          <mxGeometry width="60" height="30" as="geometry">
            <mxRectangle width="60" height="30" as="alternateBounds" />
          </mxGeometry>
        </mxCell>
        <mxCell id="lrU0WjZHBcrN_17cEXnk-53" value="username [VARCHAR(50)]" style="shape=partialRectangle;connectable=0;fillColor=none;top=0;left=0;bottom=0;right=0;align=left;spacingLeft=6;fontStyle=5;overflow=hidden;html=1;whiteSpace=wrap;" parent="lrU0WjZHBcrN_17cEXnk-51" vertex="1">
          <mxGeometry x="60" width="120" height="30" as="geometry">
            <mxRectangle width="120" height="30" as="alternateBounds" />
          </mxGeometry>
        </mxCell>
        <mxCell id="lrU0WjZHBcrN_17cEXnk-54" value="" style="shape=tableRow;horizontal=0;startSize=0;swimlaneHead=0;swimlaneBody=0;fillColor=none;collapsible=0;dropTarget=0;points=[[0,0.5],[1,0.5]];portConstraint=eastwest;top=0;left=0;right=0;bottom=0;html=1;" parent="lrU0WjZHBcrN_17cEXnk-47" vertex="1">
          <mxGeometry y="90" width="180" height="30" as="geometry" />
        </mxCell>
        <mxCell id="lrU0WjZHBcrN_17cEXnk-55" value="" style="shape=partialRectangle;connectable=0;fillColor=none;top=0;left=0;bottom=0;right=0;editable=1;overflow=hidden;html=1;whiteSpace=wrap;" parent="lrU0WjZHBcrN_17cEXnk-54" vertex="1">
          <mxGeometry width="60" height="30" as="geometry">
            <mxRectangle width="60" height="30" as="alternateBounds" />
          </mxGeometry>
        </mxCell>
        <mxCell id="lrU0WjZHBcrN_17cEXnk-56" value="" style="shape=partialRectangle;connectable=0;fillColor=none;top=0;left=0;bottom=0;right=0;align=left;spacingLeft=6;overflow=hidden;html=1;whiteSpace=wrap;" parent="lrU0WjZHBcrN_17cEXnk-54" vertex="1">
          <mxGeometry x="60" width="120" height="30" as="geometry">
            <mxRectangle width="120" height="30" as="alternateBounds" />
          </mxGeometry>
        </mxCell>
        <mxCell id="lrU0WjZHBcrN_17cEXnk-57" value="" style="shape=tableRow;horizontal=0;startSize=0;swimlaneHead=0;swimlaneBody=0;fillColor=none;collapsible=0;dropTarget=0;points=[[0,0.5],[1,0.5]];portConstraint=eastwest;top=0;left=0;right=0;bottom=0;html=1;" parent="lrU0WjZHBcrN_17cEXnk-47" vertex="1">
          <mxGeometry y="120" width="180" height="20" as="geometry" />
        </mxCell>
        <mxCell id="lrU0WjZHBcrN_17cEXnk-58" value="" style="shape=partialRectangle;connectable=0;fillColor=none;top=0;left=0;bottom=0;right=0;editable=1;overflow=hidden;html=1;whiteSpace=wrap;" parent="lrU0WjZHBcrN_17cEXnk-57" vertex="1">
          <mxGeometry width="60" height="20" as="geometry">
            <mxRectangle width="60" height="20" as="alternateBounds" />
          </mxGeometry>
        </mxCell>
        <mxCell id="lrU0WjZHBcrN_17cEXnk-59" value="" style="shape=partialRectangle;connectable=0;fillColor=none;top=0;left=0;bottom=0;right=0;align=left;spacingLeft=6;overflow=hidden;html=1;whiteSpace=wrap;" parent="lrU0WjZHBcrN_17cEXnk-57" vertex="1">
          <mxGeometry x="60" width="120" height="20" as="geometry">
            <mxRectangle width="120" height="20" as="alternateBounds" />
          </mxGeometry>
        </mxCell>
        <mxCell id="lrU0WjZHBcrN_17cEXnk-60" value="" style="edgeStyle=entityRelationEdgeStyle;fontSize=12;html=1;endArrow=ERmany;rounded=0;entryX=0;entryY=0.5;entryDx=0;entryDy=0;exitX=1;exitY=0.5;exitDx=0;exitDy=0;" parent="1" source="1U01NzLirec5ID0dAkJI-26" target="lrU0WjZHBcrN_17cEXnk-51" edge="1">
          <mxGeometry width="100" height="100" relative="1" as="geometry">
            <mxPoint x="779" y="605" as="sourcePoint" />
            <mxPoint x="879" y="505" as="targetPoint" />
          </mxGeometry>
        </mxCell>
        <mxCell id="lrU0WjZHBcrN_17cEXnk-61" value="" style="edgeStyle=elbowEdgeStyle;fontSize=12;html=1;endArrow=ERmany;rounded=0;exitX=1;exitY=0.5;exitDx=0;exitDy=0;entryX=1;entryY=0.5;entryDx=0;entryDy=0;" parent="1" source="lrU0WjZHBcrN_17cEXnk-2" target="lrU0WjZHBcrN_17cEXnk-57" edge="1">
          <mxGeometry width="100" height="100" relative="1" as="geometry">
            <mxPoint x="789" y="615" as="sourcePoint" />
            <mxPoint x="889" y="515" as="targetPoint" />
            <Array as="points">
              <mxPoint x="929" y="710" />
            </Array>
          </mxGeometry>
        </mxCell>
        <mxCell id="lrU0WjZHBcrN_17cEXnk-62" value="GameBundletoConsumer" style="shape=table;startSize=30;container=1;collapsible=1;childLayout=tableLayout;fixedRows=1;rowLines=0;fontStyle=1;align=center;resizeLast=1;html=1;whiteSpace=wrap;" parent="1" vertex="1">
          <mxGeometry x="669" y="680" width="180" height="140" as="geometry" />
        </mxCell>
        <mxCell id="lrU0WjZHBcrN_17cEXnk-63" value="" style="shape=tableRow;horizontal=0;startSize=0;swimlaneHead=0;swimlaneBody=0;fillColor=none;collapsible=0;dropTarget=0;points=[[0,0.5],[1,0.5]];portConstraint=eastwest;top=0;left=0;right=0;bottom=0;html=1;" parent="lrU0WjZHBcrN_17cEXnk-62" vertex="1">
          <mxGeometry y="30" width="180" height="30" as="geometry" />
        </mxCell>
        <mxCell id="lrU0WjZHBcrN_17cEXnk-64" value="PK1" style="shape=partialRectangle;connectable=0;fillColor=none;top=0;left=0;bottom=0;right=0;fontStyle=1;overflow=hidden;html=1;whiteSpace=wrap;" parent="lrU0WjZHBcrN_17cEXnk-63" vertex="1">
          <mxGeometry width="60" height="30" as="geometry">
            <mxRectangle width="60" height="30" as="alternateBounds" />
          </mxGeometry>
        </mxCell>
        <mxCell id="lrU0WjZHBcrN_17cEXnk-65" value="bundle_title [VARCHAR(50)]" style="shape=partialRectangle;connectable=0;fillColor=none;top=0;left=0;bottom=0;right=0;align=left;spacingLeft=6;fontStyle=5;overflow=hidden;html=1;whiteSpace=wrap;" parent="lrU0WjZHBcrN_17cEXnk-63" vertex="1">
          <mxGeometry x="60" width="120" height="30" as="geometry">
            <mxRectangle width="120" height="30" as="alternateBounds" />
          </mxGeometry>
        </mxCell>
        <mxCell id="lrU0WjZHBcrN_17cEXnk-66" value="" style="shape=tableRow;horizontal=0;startSize=0;swimlaneHead=0;swimlaneBody=0;fillColor=none;collapsible=0;dropTarget=0;points=[[0,0.5],[1,0.5]];portConstraint=eastwest;top=0;left=0;right=0;bottom=1;html=1;" parent="lrU0WjZHBcrN_17cEXnk-62" vertex="1">
          <mxGeometry y="60" width="180" height="30" as="geometry" />
        </mxCell>
        <mxCell id="lrU0WjZHBcrN_17cEXnk-67" value="PK2" style="shape=partialRectangle;connectable=0;fillColor=none;top=0;left=0;bottom=0;right=0;fontStyle=1;overflow=hidden;html=1;whiteSpace=wrap;" parent="lrU0WjZHBcrN_17cEXnk-66" vertex="1">
          <mxGeometry width="60" height="30" as="geometry">
            <mxRectangle width="60" height="30" as="alternateBounds" />
          </mxGeometry>
        </mxCell>
        <mxCell id="lrU0WjZHBcrN_17cEXnk-68" value="username [VARCHAR(50)]" style="shape=partialRectangle;connectable=0;fillColor=none;top=0;left=0;bottom=0;right=0;align=left;spacingLeft=6;fontStyle=5;overflow=hidden;html=1;whiteSpace=wrap;" parent="lrU0WjZHBcrN_17cEXnk-66" vertex="1">
          <mxGeometry x="60" width="120" height="30" as="geometry">
            <mxRectangle width="120" height="30" as="alternateBounds" />
          </mxGeometry>
        </mxCell>
        <mxCell id="lrU0WjZHBcrN_17cEXnk-69" value="" style="shape=tableRow;horizontal=0;startSize=0;swimlaneHead=0;swimlaneBody=0;fillColor=none;collapsible=0;dropTarget=0;points=[[0,0.5],[1,0.5]];portConstraint=eastwest;top=0;left=0;right=0;bottom=0;html=1;" parent="lrU0WjZHBcrN_17cEXnk-62" vertex="1">
          <mxGeometry y="90" width="180" height="30" as="geometry" />
        </mxCell>
        <mxCell id="lrU0WjZHBcrN_17cEXnk-70" value="" style="shape=partialRectangle;connectable=0;fillColor=none;top=0;left=0;bottom=0;right=0;editable=1;overflow=hidden;html=1;whiteSpace=wrap;" parent="lrU0WjZHBcrN_17cEXnk-69" vertex="1">
          <mxGeometry width="60" height="30" as="geometry">
            <mxRectangle width="60" height="30" as="alternateBounds" />
          </mxGeometry>
        </mxCell>
        <mxCell id="lrU0WjZHBcrN_17cEXnk-71" value="" style="shape=partialRectangle;connectable=0;fillColor=none;top=0;left=0;bottom=0;right=0;align=left;spacingLeft=6;overflow=hidden;html=1;whiteSpace=wrap;" parent="lrU0WjZHBcrN_17cEXnk-69" vertex="1">
          <mxGeometry x="60" width="120" height="30" as="geometry">
            <mxRectangle width="120" height="30" as="alternateBounds" />
          </mxGeometry>
        </mxCell>
        <mxCell id="lrU0WjZHBcrN_17cEXnk-72" value="" style="shape=tableRow;horizontal=0;startSize=0;swimlaneHead=0;swimlaneBody=0;fillColor=none;collapsible=0;dropTarget=0;points=[[0,0.5],[1,0.5]];portConstraint=eastwest;top=0;left=0;right=0;bottom=0;html=1;" parent="lrU0WjZHBcrN_17cEXnk-62" vertex="1">
          <mxGeometry y="120" width="180" height="20" as="geometry" />
        </mxCell>
        <mxCell id="lrU0WjZHBcrN_17cEXnk-73" value="" style="shape=partialRectangle;connectable=0;fillColor=none;top=0;left=0;bottom=0;right=0;editable=1;overflow=hidden;html=1;whiteSpace=wrap;" parent="lrU0WjZHBcrN_17cEXnk-72" vertex="1">
          <mxGeometry width="60" height="20" as="geometry">
            <mxRectangle width="60" height="20" as="alternateBounds" />
          </mxGeometry>
        </mxCell>
        <mxCell id="lrU0WjZHBcrN_17cEXnk-74" value="" style="shape=partialRectangle;connectable=0;fillColor=none;top=0;left=0;bottom=0;right=0;align=left;spacingLeft=6;overflow=hidden;html=1;whiteSpace=wrap;" parent="lrU0WjZHBcrN_17cEXnk-72" vertex="1">
          <mxGeometry x="60" width="120" height="20" as="geometry">
            <mxRectangle width="120" height="20" as="alternateBounds" />
          </mxGeometry>
        </mxCell>
        <mxCell id="lrU0WjZHBcrN_17cEXnk-75" value="" style="edgeStyle=entityRelationEdgeStyle;fontSize=12;html=1;endArrow=ERmany;rounded=0;exitX=1;exitY=0.5;exitDx=0;exitDy=0;entryX=0;entryY=0.5;entryDx=0;entryDy=0;" parent="1" source="lrU0WjZHBcrN_17cEXnk-21" target="lrU0WjZHBcrN_17cEXnk-66" edge="1">
          <mxGeometry width="100" height="100" relative="1" as="geometry">
            <mxPoint x="749" y="665" as="sourcePoint" />
            <mxPoint x="849" y="565" as="targetPoint" />
          </mxGeometry>
        </mxCell>
        <mxCell id="lrU0WjZHBcrN_17cEXnk-76" value="" style="edgeStyle=elbowEdgeStyle;fontSize=12;html=1;endArrow=ERmany;rounded=0;entryX=1;entryY=0.5;entryDx=0;entryDy=0;exitX=1;exitY=0.5;exitDx=0;exitDy=0;" parent="1" source="lrU0WjZHBcrN_17cEXnk-11" target="lrU0WjZHBcrN_17cEXnk-66" edge="1">
          <mxGeometry width="100" height="100" relative="1" as="geometry">
            <mxPoint x="949" y="535" as="sourcePoint" />
            <mxPoint x="849" y="565" as="targetPoint" />
            <Array as="points">
              <mxPoint x="919" y="910" />
            </Array>
          </mxGeometry>
        </mxCell>
        <mxCell id="lrU0WjZHBcrN_17cEXnk-77" value="DLCtoConsumer" style="shape=table;startSize=30;container=1;collapsible=1;childLayout=tableLayout;fixedRows=1;rowLines=0;fontStyle=1;align=center;resizeLast=1;html=1;whiteSpace=wrap;" parent="1" vertex="1">
          <mxGeometry x="649" y="525" width="180" height="140" as="geometry" />
        </mxCell>
        <mxCell id="lrU0WjZHBcrN_17cEXnk-78" value="" style="shape=tableRow;horizontal=0;startSize=0;swimlaneHead=0;swimlaneBody=0;fillColor=none;collapsible=0;dropTarget=0;points=[[0,0.5],[1,0.5]];portConstraint=eastwest;top=0;left=0;right=0;bottom=0;html=1;" parent="lrU0WjZHBcrN_17cEXnk-77" vertex="1">
          <mxGeometry y="30" width="180" height="30" as="geometry" />
        </mxCell>
        <mxCell id="lrU0WjZHBcrN_17cEXnk-79" value="PK1" style="shape=partialRectangle;connectable=0;fillColor=none;top=0;left=0;bottom=0;right=0;fontStyle=1;overflow=hidden;html=1;whiteSpace=wrap;" parent="lrU0WjZHBcrN_17cEXnk-78" vertex="1">
          <mxGeometry width="60" height="30" as="geometry">
            <mxRectangle width="60" height="30" as="alternateBounds" />
          </mxGeometry>
        </mxCell>
        <mxCell id="lrU0WjZHBcrN_17cEXnk-80" value="DLC_title [VARCHAR(50)]" style="shape=partialRectangle;connectable=0;fillColor=none;top=0;left=0;bottom=0;right=0;align=left;spacingLeft=6;fontStyle=5;overflow=hidden;html=1;whiteSpace=wrap;" parent="lrU0WjZHBcrN_17cEXnk-78" vertex="1">
          <mxGeometry x="60" width="120" height="30" as="geometry">
            <mxRectangle width="120" height="30" as="alternateBounds" />
          </mxGeometry>
        </mxCell>
        <mxCell id="lrU0WjZHBcrN_17cEXnk-81" value="" style="shape=tableRow;horizontal=0;startSize=0;swimlaneHead=0;swimlaneBody=0;fillColor=none;collapsible=0;dropTarget=0;points=[[0,0.5],[1,0.5]];portConstraint=eastwest;top=0;left=0;right=0;bottom=1;html=1;" parent="lrU0WjZHBcrN_17cEXnk-77" vertex="1">
          <mxGeometry y="60" width="180" height="30" as="geometry" />
        </mxCell>
        <mxCell id="lrU0WjZHBcrN_17cEXnk-82" value="PK2" style="shape=partialRectangle;connectable=0;fillColor=none;top=0;left=0;bottom=0;right=0;fontStyle=1;overflow=hidden;html=1;whiteSpace=wrap;" parent="lrU0WjZHBcrN_17cEXnk-81" vertex="1">
          <mxGeometry width="60" height="30" as="geometry">
            <mxRectangle width="60" height="30" as="alternateBounds" />
          </mxGeometry>
        </mxCell>
        <mxCell id="lrU0WjZHBcrN_17cEXnk-83" value="username [VARCHAR(50)]" style="shape=partialRectangle;connectable=0;fillColor=none;top=0;left=0;bottom=0;right=0;align=left;spacingLeft=6;fontStyle=5;overflow=hidden;html=1;whiteSpace=wrap;" parent="lrU0WjZHBcrN_17cEXnk-81" vertex="1">
          <mxGeometry x="60" width="120" height="30" as="geometry">
            <mxRectangle width="120" height="30" as="alternateBounds" />
          </mxGeometry>
        </mxCell>
        <mxCell id="lrU0WjZHBcrN_17cEXnk-84" value="" style="shape=tableRow;horizontal=0;startSize=0;swimlaneHead=0;swimlaneBody=0;fillColor=none;collapsible=0;dropTarget=0;points=[[0,0.5],[1,0.5]];portConstraint=eastwest;top=0;left=0;right=0;bottom=0;html=1;" parent="lrU0WjZHBcrN_17cEXnk-77" vertex="1">
          <mxGeometry y="90" width="180" height="30" as="geometry" />
        </mxCell>
        <mxCell id="lrU0WjZHBcrN_17cEXnk-85" value="" style="shape=partialRectangle;connectable=0;fillColor=none;top=0;left=0;bottom=0;right=0;editable=1;overflow=hidden;html=1;whiteSpace=wrap;" parent="lrU0WjZHBcrN_17cEXnk-84" vertex="1">
          <mxGeometry width="60" height="30" as="geometry">
            <mxRectangle width="60" height="30" as="alternateBounds" />
          </mxGeometry>
        </mxCell>
        <mxCell id="lrU0WjZHBcrN_17cEXnk-86" value="" style="shape=partialRectangle;connectable=0;fillColor=none;top=0;left=0;bottom=0;right=0;align=left;spacingLeft=6;overflow=hidden;html=1;whiteSpace=wrap;" parent="lrU0WjZHBcrN_17cEXnk-84" vertex="1">
          <mxGeometry x="60" width="120" height="30" as="geometry">
            <mxRectangle width="120" height="30" as="alternateBounds" />
          </mxGeometry>
        </mxCell>
        <mxCell id="lrU0WjZHBcrN_17cEXnk-87" value="" style="shape=tableRow;horizontal=0;startSize=0;swimlaneHead=0;swimlaneBody=0;fillColor=none;collapsible=0;dropTarget=0;points=[[0,0.5],[1,0.5]];portConstraint=eastwest;top=0;left=0;right=0;bottom=0;html=1;" parent="lrU0WjZHBcrN_17cEXnk-77" vertex="1">
          <mxGeometry y="120" width="180" height="20" as="geometry" />
        </mxCell>
        <mxCell id="lrU0WjZHBcrN_17cEXnk-88" value="" style="shape=partialRectangle;connectable=0;fillColor=none;top=0;left=0;bottom=0;right=0;editable=1;overflow=hidden;html=1;whiteSpace=wrap;" parent="lrU0WjZHBcrN_17cEXnk-87" vertex="1">
          <mxGeometry width="60" height="20" as="geometry">
            <mxRectangle width="60" height="20" as="alternateBounds" />
          </mxGeometry>
        </mxCell>
        <mxCell id="lrU0WjZHBcrN_17cEXnk-89" value="" style="shape=partialRectangle;connectable=0;fillColor=none;top=0;left=0;bottom=0;right=0;align=left;spacingLeft=6;overflow=hidden;html=1;whiteSpace=wrap;" parent="lrU0WjZHBcrN_17cEXnk-87" vertex="1">
          <mxGeometry x="60" width="120" height="20" as="geometry">
            <mxRectangle width="120" height="20" as="alternateBounds" />
          </mxGeometry>
        </mxCell>
        <mxCell id="lrU0WjZHBcrN_17cEXnk-91" value="" style="edgeStyle=elbowEdgeStyle;fontSize=12;html=1;endArrow=ERmany;rounded=0;entryX=1;entryY=0.5;entryDx=0;entryDy=0;exitX=1;exitY=0.5;exitDx=0;exitDy=0;" parent="1" source="lrU0WjZHBcrN_17cEXnk-8" target="lrU0WjZHBcrN_17cEXnk-87" edge="1">
          <mxGeometry width="100" height="100" relative="1" as="geometry">
            <mxPoint x="739" y="515" as="sourcePoint" />
            <mxPoint x="839" y="415" as="targetPoint" />
            <Array as="points">
              <mxPoint x="899" y="840" />
            </Array>
          </mxGeometry>
        </mxCell>
        <mxCell id="lrU0WjZHBcrN_17cEXnk-92" value="" style="edgeStyle=entityRelationEdgeStyle;fontSize=12;html=1;endArrow=ERmany;rounded=0;entryX=0;entryY=0.5;entryDx=0;entryDy=0;exitX=1;exitY=0.5;exitDx=0;exitDy=0;" parent="1" source="lrU0WjZHBcrN_17cEXnk-34" target="lrU0WjZHBcrN_17cEXnk-78" edge="1">
          <mxGeometry width="100" height="100" relative="1" as="geometry">
            <mxPoint x="489" y="605" as="sourcePoint" />
            <mxPoint x="589" y="505" as="targetPoint" />
          </mxGeometry>
        </mxCell>
        <mxCell id="lrU0WjZHBcrN_17cEXnk-93" value="DLCtoGameBundle" style="shape=table;startSize=30;container=1;collapsible=1;childLayout=tableLayout;fixedRows=1;rowLines=0;fontStyle=1;align=center;resizeLast=1;html=1;whiteSpace=wrap;" parent="1" vertex="1">
          <mxGeometry x="119" y="695" width="180" height="120" as="geometry" />
        </mxCell>
        <mxCell id="lrU0WjZHBcrN_17cEXnk-94" value="" style="shape=tableRow;horizontal=0;startSize=0;swimlaneHead=0;swimlaneBody=0;fillColor=none;collapsible=0;dropTarget=0;points=[[0,0.5],[1,0.5]];portConstraint=eastwest;top=0;left=0;right=0;bottom=0;html=1;" parent="lrU0WjZHBcrN_17cEXnk-93" vertex="1">
          <mxGeometry y="30" width="180" height="30" as="geometry" />
        </mxCell>
        <mxCell id="lrU0WjZHBcrN_17cEXnk-95" value="PK1" style="shape=partialRectangle;connectable=0;fillColor=none;top=0;left=0;bottom=0;right=0;fontStyle=1;overflow=hidden;html=1;whiteSpace=wrap;" parent="lrU0WjZHBcrN_17cEXnk-94" vertex="1">
          <mxGeometry width="60" height="30" as="geometry">
            <mxRectangle width="60" height="30" as="alternateBounds" />
          </mxGeometry>
        </mxCell>
        <mxCell id="lrU0WjZHBcrN_17cEXnk-96" value="DLC_title [VARCHAR(50)]" style="shape=partialRectangle;connectable=0;fillColor=none;top=0;left=0;bottom=0;right=0;align=left;spacingLeft=6;fontStyle=5;overflow=hidden;html=1;whiteSpace=wrap;" parent="lrU0WjZHBcrN_17cEXnk-94" vertex="1">
          <mxGeometry x="60" width="120" height="30" as="geometry">
            <mxRectangle width="120" height="30" as="alternateBounds" />
          </mxGeometry>
        </mxCell>
        <mxCell id="lrU0WjZHBcrN_17cEXnk-97" value="" style="shape=tableRow;horizontal=0;startSize=0;swimlaneHead=0;swimlaneBody=0;fillColor=none;collapsible=0;dropTarget=0;points=[[0,0.5],[1,0.5]];portConstraint=eastwest;top=0;left=0;right=0;bottom=1;html=1;" parent="lrU0WjZHBcrN_17cEXnk-93" vertex="1">
          <mxGeometry y="60" width="180" height="30" as="geometry" />
        </mxCell>
        <mxCell id="lrU0WjZHBcrN_17cEXnk-98" value="PK2" style="shape=partialRectangle;connectable=0;fillColor=none;top=0;left=0;bottom=0;right=0;fontStyle=1;overflow=hidden;html=1;whiteSpace=wrap;" parent="lrU0WjZHBcrN_17cEXnk-97" vertex="1">
          <mxGeometry width="60" height="30" as="geometry">
            <mxRectangle width="60" height="30" as="alternateBounds" />
          </mxGeometry>
        </mxCell>
        <mxCell id="lrU0WjZHBcrN_17cEXnk-99" value="bundle_title [VARCHAR(50)]" style="shape=partialRectangle;connectable=0;fillColor=none;top=0;left=0;bottom=0;right=0;align=left;spacingLeft=6;fontStyle=5;overflow=hidden;html=1;whiteSpace=wrap;" parent="lrU0WjZHBcrN_17cEXnk-97" vertex="1">
          <mxGeometry x="60" width="120" height="30" as="geometry">
            <mxRectangle width="120" height="30" as="alternateBounds" />
          </mxGeometry>
        </mxCell>
        <mxCell id="lrU0WjZHBcrN_17cEXnk-100" value="" style="shape=tableRow;horizontal=0;startSize=0;swimlaneHead=0;swimlaneBody=0;fillColor=none;collapsible=0;dropTarget=0;points=[[0,0.5],[1,0.5]];portConstraint=eastwest;top=0;left=0;right=0;bottom=0;html=1;" parent="lrU0WjZHBcrN_17cEXnk-93" vertex="1">
          <mxGeometry y="90" width="180" height="30" as="geometry" />
        </mxCell>
        <mxCell id="lrU0WjZHBcrN_17cEXnk-101" value="" style="shape=partialRectangle;connectable=0;fillColor=none;top=0;left=0;bottom=0;right=0;editable=1;overflow=hidden;html=1;whiteSpace=wrap;" parent="lrU0WjZHBcrN_17cEXnk-100" vertex="1">
          <mxGeometry width="60" height="30" as="geometry">
            <mxRectangle width="60" height="30" as="alternateBounds" />
          </mxGeometry>
        </mxCell>
        <mxCell id="lrU0WjZHBcrN_17cEXnk-102" value="" style="shape=partialRectangle;connectable=0;fillColor=none;top=0;left=0;bottom=0;right=0;align=left;spacingLeft=6;overflow=hidden;html=1;whiteSpace=wrap;" parent="lrU0WjZHBcrN_17cEXnk-100" vertex="1">
          <mxGeometry x="60" width="120" height="30" as="geometry">
            <mxRectangle width="120" height="30" as="alternateBounds" />
          </mxGeometry>
        </mxCell>
        <mxCell id="lrU0WjZHBcrN_17cEXnk-106" value="" style="edgeStyle=entityRelationEdgeStyle;fontSize=12;html=1;endArrow=ERmany;rounded=0;exitX=0;exitY=0.5;exitDx=0;exitDy=0;entryX=1;entryY=0.5;entryDx=0;entryDy=0;" parent="1" source="lrU0WjZHBcrN_17cEXnk-21" target="lrU0WjZHBcrN_17cEXnk-94" edge="1">
          <mxGeometry width="100" height="100" relative="1" as="geometry">
            <mxPoint x="349" y="705" as="sourcePoint" />
            <mxPoint x="449" y="605" as="targetPoint" />
          </mxGeometry>
        </mxCell>
        <mxCell id="lrU0WjZHBcrN_17cEXnk-107" value="" style="edgeStyle=orthogonalEdgeStyle;fontSize=12;html=1;endArrow=ERmany;rounded=0;entryX=0;entryY=0.5;entryDx=0;entryDy=0;exitX=0;exitY=0.5;exitDx=0;exitDy=0;elbow=vertical;curved=1;" parent="1" source="lrU0WjZHBcrN_17cEXnk-34" target="lrU0WjZHBcrN_17cEXnk-94" edge="1">
          <mxGeometry width="100" height="100" relative="1" as="geometry">
            <mxPoint x="289" y="705" as="sourcePoint" />
            <mxPoint x="389" y="605" as="targetPoint" />
          </mxGeometry>
        </mxCell>
        <mxCell id="lrU0WjZHBcrN_17cEXnk-121" value="VideoGametoGameBundle" style="shape=table;startSize=30;container=1;collapsible=1;childLayout=tableLayout;fixedRows=1;rowLines=0;fontStyle=1;align=center;resizeLast=1;html=1;whiteSpace=wrap;" parent="1" vertex="1">
          <mxGeometry x="419" y="605" width="180" height="140" as="geometry" />
        </mxCell>
        <mxCell id="lrU0WjZHBcrN_17cEXnk-122" value="" style="shape=tableRow;horizontal=0;startSize=0;swimlaneHead=0;swimlaneBody=0;fillColor=none;collapsible=0;dropTarget=0;points=[[0,0.5],[1,0.5]];portConstraint=eastwest;top=0;left=0;right=0;bottom=0;html=1;" parent="lrU0WjZHBcrN_17cEXnk-121" vertex="1">
          <mxGeometry y="30" width="180" height="30" as="geometry" />
        </mxCell>
        <mxCell id="lrU0WjZHBcrN_17cEXnk-123" value="PK1" style="shape=partialRectangle;connectable=0;fillColor=none;top=0;left=0;bottom=0;right=0;fontStyle=1;overflow=hidden;html=1;whiteSpace=wrap;" parent="lrU0WjZHBcrN_17cEXnk-122" vertex="1">
          <mxGeometry width="60" height="30" as="geometry">
            <mxRectangle width="60" height="30" as="alternateBounds" />
          </mxGeometry>
        </mxCell>
        <mxCell id="lrU0WjZHBcrN_17cEXnk-124" value="game_title [VARCHAR(50)]" style="shape=partialRectangle;connectable=0;fillColor=none;top=0;left=0;bottom=0;right=0;align=left;spacingLeft=6;fontStyle=5;overflow=hidden;html=1;whiteSpace=wrap;" parent="lrU0WjZHBcrN_17cEXnk-122" vertex="1">
          <mxGeometry x="60" width="120" height="30" as="geometry">
            <mxRectangle width="120" height="30" as="alternateBounds" />
          </mxGeometry>
        </mxCell>
        <mxCell id="lrU0WjZHBcrN_17cEXnk-125" value="" style="shape=tableRow;horizontal=0;startSize=0;swimlaneHead=0;swimlaneBody=0;fillColor=none;collapsible=0;dropTarget=0;points=[[0,0.5],[1,0.5]];portConstraint=eastwest;top=0;left=0;right=0;bottom=1;html=1;" parent="lrU0WjZHBcrN_17cEXnk-121" vertex="1">
          <mxGeometry y="60" width="180" height="30" as="geometry" />
        </mxCell>
        <mxCell id="lrU0WjZHBcrN_17cEXnk-126" value="PK2" style="shape=partialRectangle;connectable=0;fillColor=none;top=0;left=0;bottom=0;right=0;fontStyle=1;overflow=hidden;html=1;whiteSpace=wrap;" parent="lrU0WjZHBcrN_17cEXnk-125" vertex="1">
          <mxGeometry width="60" height="30" as="geometry">
            <mxRectangle width="60" height="30" as="alternateBounds" />
          </mxGeometry>
        </mxCell>
        <mxCell id="lrU0WjZHBcrN_17cEXnk-127" value="bundle_title [VARCHAR(50)]" style="shape=partialRectangle;connectable=0;fillColor=none;top=0;left=0;bottom=0;right=0;align=left;spacingLeft=6;fontStyle=5;overflow=hidden;html=1;whiteSpace=wrap;" parent="lrU0WjZHBcrN_17cEXnk-125" vertex="1">
          <mxGeometry x="60" width="120" height="30" as="geometry">
            <mxRectangle width="120" height="30" as="alternateBounds" />
          </mxGeometry>
        </mxCell>
        <mxCell id="lrU0WjZHBcrN_17cEXnk-128" value="" style="shape=tableRow;horizontal=0;startSize=0;swimlaneHead=0;swimlaneBody=0;fillColor=none;collapsible=0;dropTarget=0;points=[[0,0.5],[1,0.5]];portConstraint=eastwest;top=0;left=0;right=0;bottom=0;html=1;" parent="lrU0WjZHBcrN_17cEXnk-121" vertex="1">
          <mxGeometry y="90" width="180" height="30" as="geometry" />
        </mxCell>
        <mxCell id="lrU0WjZHBcrN_17cEXnk-129" value="" style="shape=partialRectangle;connectable=0;fillColor=none;top=0;left=0;bottom=0;right=0;editable=1;overflow=hidden;html=1;whiteSpace=wrap;" parent="lrU0WjZHBcrN_17cEXnk-128" vertex="1">
          <mxGeometry width="60" height="30" as="geometry">
            <mxRectangle width="60" height="30" as="alternateBounds" />
          </mxGeometry>
        </mxCell>
        <mxCell id="lrU0WjZHBcrN_17cEXnk-130" value="" style="shape=partialRectangle;connectable=0;fillColor=none;top=0;left=0;bottom=0;right=0;align=left;spacingLeft=6;overflow=hidden;html=1;whiteSpace=wrap;" parent="lrU0WjZHBcrN_17cEXnk-128" vertex="1">
          <mxGeometry x="60" width="120" height="30" as="geometry">
            <mxRectangle width="120" height="30" as="alternateBounds" />
          </mxGeometry>
        </mxCell>
        <mxCell id="lrU0WjZHBcrN_17cEXnk-131" value="" style="shape=tableRow;horizontal=0;startSize=0;swimlaneHead=0;swimlaneBody=0;fillColor=none;collapsible=0;dropTarget=0;points=[[0,0.5],[1,0.5]];portConstraint=eastwest;top=0;left=0;right=0;bottom=0;html=1;" parent="lrU0WjZHBcrN_17cEXnk-121" vertex="1">
          <mxGeometry y="120" width="180" height="20" as="geometry" />
        </mxCell>
        <mxCell id="lrU0WjZHBcrN_17cEXnk-132" value="" style="shape=partialRectangle;connectable=0;fillColor=none;top=0;left=0;bottom=0;right=0;editable=1;overflow=hidden;html=1;whiteSpace=wrap;" parent="lrU0WjZHBcrN_17cEXnk-131" vertex="1">
          <mxGeometry width="60" height="20" as="geometry">
            <mxRectangle width="60" height="20" as="alternateBounds" />
          </mxGeometry>
        </mxCell>
        <mxCell id="lrU0WjZHBcrN_17cEXnk-133" value="" style="shape=partialRectangle;connectable=0;fillColor=none;top=0;left=0;bottom=0;right=0;align=left;spacingLeft=6;overflow=hidden;html=1;whiteSpace=wrap;" parent="lrU0WjZHBcrN_17cEXnk-131" vertex="1">
          <mxGeometry x="60" width="120" height="20" as="geometry">
            <mxRectangle width="120" height="20" as="alternateBounds" />
          </mxGeometry>
        </mxCell>
        <mxCell id="lrU0WjZHBcrN_17cEXnk-134" value="" style="edgeStyle=elbowEdgeStyle;fontSize=12;html=1;endArrow=ERmany;rounded=0;entryX=0;entryY=0.5;entryDx=0;entryDy=0;exitX=0;exitY=0.5;exitDx=0;exitDy=0;" parent="1" source="1U01NzLirec5ID0dAkJI-26" target="lrU0WjZHBcrN_17cEXnk-125" edge="1">
          <mxGeometry width="100" height="100" relative="1" as="geometry">
            <mxPoint x="509" y="695" as="sourcePoint" />
            <mxPoint x="609" y="595" as="targetPoint" />
            <Array as="points">
              <mxPoint x="399" y="565" />
            </Array>
          </mxGeometry>
        </mxCell>
        <mxCell id="lrU0WjZHBcrN_17cEXnk-135" value="" style="edgeStyle=elbowEdgeStyle;fontSize=12;html=1;endArrow=ERmany;rounded=0;exitX=1;exitY=0.5;exitDx=0;exitDy=0;entryX=1;entryY=0.5;entryDx=0;entryDy=0;" parent="1" source="lrU0WjZHBcrN_17cEXnk-15" target="lrU0WjZHBcrN_17cEXnk-125" edge="1">
          <mxGeometry width="100" height="100" relative="1" as="geometry">
            <mxPoint x="569" y="745" as="sourcePoint" />
            <mxPoint x="669" y="645" as="targetPoint" />
            <Array as="points">
              <mxPoint x="629" y="750" />
            </Array>
          </mxGeometry>
        </mxCell>
        <mxCell id="lrU0WjZHBcrN_17cEXnk-138" value="VideoGametoFunctionality" style="shape=table;startSize=30;container=1;collapsible=1;childLayout=tableLayout;fixedRows=1;rowLines=0;fontStyle=1;align=center;resizeLast=1;html=1;whiteSpace=wrap;" parent="1" vertex="1">
          <mxGeometry x="369" y="50" width="180" height="150" as="geometry" />
        </mxCell>
        <mxCell id="lrU0WjZHBcrN_17cEXnk-139" value="" style="shape=tableRow;horizontal=0;startSize=0;swimlaneHead=0;swimlaneBody=0;fillColor=none;collapsible=0;dropTarget=0;points=[[0,0.5],[1,0.5]];portConstraint=eastwest;top=0;left=0;right=0;bottom=0;html=1;" parent="lrU0WjZHBcrN_17cEXnk-138" vertex="1">
          <mxGeometry y="30" width="180" height="30" as="geometry" />
        </mxCell>
        <mxCell id="lrU0WjZHBcrN_17cEXnk-140" value="PK1" style="shape=partialRectangle;connectable=0;fillColor=none;top=0;left=0;bottom=0;right=0;fontStyle=1;overflow=hidden;html=1;whiteSpace=wrap;" parent="lrU0WjZHBcrN_17cEXnk-139" vertex="1">
          <mxGeometry width="60" height="30" as="geometry">
            <mxRectangle width="60" height="30" as="alternateBounds" />
          </mxGeometry>
        </mxCell>
        <mxCell id="lrU0WjZHBcrN_17cEXnk-141" value="game_title [VARCHAR(50)]" style="shape=partialRectangle;connectable=0;fillColor=none;top=0;left=0;bottom=0;right=0;align=left;spacingLeft=6;fontStyle=5;overflow=hidden;html=1;whiteSpace=wrap;" parent="lrU0WjZHBcrN_17cEXnk-139" vertex="1">
          <mxGeometry x="60" width="120" height="30" as="geometry">
            <mxRectangle width="120" height="30" as="alternateBounds" />
          </mxGeometry>
        </mxCell>
        <mxCell id="lrU0WjZHBcrN_17cEXnk-142" value="" style="shape=tableRow;horizontal=0;startSize=0;swimlaneHead=0;swimlaneBody=0;fillColor=none;collapsible=0;dropTarget=0;points=[[0,0.5],[1,0.5]];portConstraint=eastwest;top=0;left=0;right=0;bottom=1;html=1;" parent="lrU0WjZHBcrN_17cEXnk-138" vertex="1">
          <mxGeometry y="60" width="180" height="40" as="geometry" />
        </mxCell>
        <mxCell id="lrU0WjZHBcrN_17cEXnk-143" value="PK2" style="shape=partialRectangle;connectable=0;fillColor=none;top=0;left=0;bottom=0;right=0;fontStyle=1;overflow=hidden;html=1;whiteSpace=wrap;" parent="lrU0WjZHBcrN_17cEXnk-142" vertex="1">
          <mxGeometry width="60" height="40" as="geometry">
            <mxRectangle width="60" height="40" as="alternateBounds" />
          </mxGeometry>
        </mxCell>
        <mxCell id="lrU0WjZHBcrN_17cEXnk-144" value="func_id [SMALLINT]" style="shape=partialRectangle;connectable=0;fillColor=none;top=0;left=0;bottom=0;right=0;align=left;spacingLeft=6;fontStyle=5;overflow=hidden;html=1;whiteSpace=wrap;" parent="lrU0WjZHBcrN_17cEXnk-142" vertex="1">
          <mxGeometry x="60" width="120" height="40" as="geometry">
            <mxRectangle width="120" height="40" as="alternateBounds" />
          </mxGeometry>
        </mxCell>
        <mxCell id="lrU0WjZHBcrN_17cEXnk-145" value="" style="shape=tableRow;horizontal=0;startSize=0;swimlaneHead=0;swimlaneBody=0;fillColor=none;collapsible=0;dropTarget=0;points=[[0,0.5],[1,0.5]];portConstraint=eastwest;top=0;left=0;right=0;bottom=0;html=1;" parent="lrU0WjZHBcrN_17cEXnk-138" vertex="1">
          <mxGeometry y="100" width="180" height="30" as="geometry" />
        </mxCell>
        <mxCell id="lrU0WjZHBcrN_17cEXnk-146" value="" style="shape=partialRectangle;connectable=0;fillColor=none;top=0;left=0;bottom=0;right=0;editable=1;overflow=hidden;html=1;whiteSpace=wrap;" parent="lrU0WjZHBcrN_17cEXnk-145" vertex="1">
          <mxGeometry width="60" height="30" as="geometry">
            <mxRectangle width="60" height="30" as="alternateBounds" />
          </mxGeometry>
        </mxCell>
        <mxCell id="lrU0WjZHBcrN_17cEXnk-147" value="" style="shape=partialRectangle;connectable=0;fillColor=none;top=0;left=0;bottom=0;right=0;align=left;spacingLeft=6;overflow=hidden;html=1;whiteSpace=wrap;" parent="lrU0WjZHBcrN_17cEXnk-145" vertex="1">
          <mxGeometry x="60" width="120" height="30" as="geometry">
            <mxRectangle width="120" height="30" as="alternateBounds" />
          </mxGeometry>
        </mxCell>
        <mxCell id="lrU0WjZHBcrN_17cEXnk-148" value="" style="shape=tableRow;horizontal=0;startSize=0;swimlaneHead=0;swimlaneBody=0;fillColor=none;collapsible=0;dropTarget=0;points=[[0,0.5],[1,0.5]];portConstraint=eastwest;top=0;left=0;right=0;bottom=0;html=1;" parent="lrU0WjZHBcrN_17cEXnk-138" vertex="1">
          <mxGeometry y="130" width="180" height="20" as="geometry" />
        </mxCell>
        <mxCell id="lrU0WjZHBcrN_17cEXnk-149" value="" style="shape=partialRectangle;connectable=0;fillColor=none;top=0;left=0;bottom=0;right=0;editable=1;overflow=hidden;html=1;whiteSpace=wrap;" parent="lrU0WjZHBcrN_17cEXnk-148" vertex="1">
          <mxGeometry width="60" height="20" as="geometry">
            <mxRectangle width="60" height="20" as="alternateBounds" />
          </mxGeometry>
        </mxCell>
        <mxCell id="lrU0WjZHBcrN_17cEXnk-150" value="" style="shape=partialRectangle;connectable=0;fillColor=none;top=0;left=0;bottom=0;right=0;align=left;spacingLeft=6;overflow=hidden;html=1;whiteSpace=wrap;" parent="lrU0WjZHBcrN_17cEXnk-148" vertex="1">
          <mxGeometry x="60" width="120" height="20" as="geometry">
            <mxRectangle width="120" height="20" as="alternateBounds" />
          </mxGeometry>
        </mxCell>
        <mxCell id="lrU0WjZHBcrN_17cEXnk-151" value="" style="edgeStyle=entityRelationEdgeStyle;fontSize=12;html=1;endArrow=ERmany;rounded=0;entryX=0;entryY=0.5;entryDx=0;entryDy=0;exitX=1;exitY=0.5;exitDx=0;exitDy=0;" parent="1" source="ZNkEy4uUX-2XDN_SYzyk-5" target="lrU0WjZHBcrN_17cEXnk-142" edge="1">
          <mxGeometry width="100" height="100" relative="1" as="geometry">
            <mxPoint x="399" y="320" as="sourcePoint" />
            <mxPoint x="499" y="220" as="targetPoint" />
            <Array as="points">
              <mxPoint x="339" y="200" />
              <mxPoint x="299" y="210" />
              <mxPoint x="309" y="200" />
              <mxPoint x="349" y="70" />
            </Array>
          </mxGeometry>
        </mxCell>
        <mxCell id="lrU0WjZHBcrN_17cEXnk-152" value="" style="edgeStyle=elbowEdgeStyle;fontSize=12;html=1;endArrow=ERmany;rounded=0;entryX=1;entryY=0.5;entryDx=0;entryDy=0;exitX=1;exitY=0.5;exitDx=0;exitDy=0;" parent="1" source="1U01NzLirec5ID0dAkJI-17" target="lrU0WjZHBcrN_17cEXnk-142" edge="1">
          <mxGeometry width="100" height="100" relative="1" as="geometry">
            <mxPoint x="719" y="220" as="sourcePoint" />
            <mxPoint x="379" y="135" as="targetPoint" />
            <Array as="points">
              <mxPoint x="699" y="210" />
            </Array>
          </mxGeometry>
        </mxCell>
        <mxCell id="Kq6pPQOJHwTrtARb1F13-1" value="" style="rounded=0;whiteSpace=wrap;html=1;" parent="1" vertex="1">
          <mxGeometry x="1045" y="29" width="160" height="40" as="geometry" />
        </mxCell>
        <mxCell id="Kq6pPQOJHwTrtARb1F13-2" value="Developer" style="text;strokeColor=none;align=center;fillColor=none;html=1;verticalAlign=middle;whiteSpace=wrap;rounded=0;" parent="1" vertex="1">
          <mxGeometry x="1045" y="4" width="60" height="30" as="geometry" />
        </mxCell>
        <mxCell id="Kq6pPQOJHwTrtARb1F13-3" value="dev_name [VARCHAR(50)]" style="text;strokeColor=none;align=center;fillColor=none;html=1;verticalAlign=middle;whiteSpace=wrap;rounded=0;" parent="1" vertex="1">
          <mxGeometry x="1045" y="34" width="160" height="30" as="geometry" />
        </mxCell>
        <mxCell id="Kq6pPQOJHwTrtARb1F13-4" value="" style="rounded=0;whiteSpace=wrap;html=1;" parent="1" vertex="1">
          <mxGeometry x="1205" y="29" width="160" height="40" as="geometry" />
        </mxCell>
        <mxCell id="Kq6pPQOJHwTrtARb1F13-6" value="genre [VARCHAR(50)]" style="text;strokeColor=none;align=center;fillColor=none;html=1;verticalAlign=middle;whiteSpace=wrap;rounded=0;" parent="1" vertex="1">
          <mxGeometry x="1205" y="34" width="160" height="30" as="geometry" />
        </mxCell>
        <mxCell id="Kq6pPQOJHwTrtARb1F13-7" value="" style="rounded=0;whiteSpace=wrap;html=1;" parent="1" vertex="1">
          <mxGeometry x="1045" y="117" width="160" height="40" as="geometry" />
        </mxCell>
        <mxCell id="Kq6pPQOJHwTrtARb1F13-8" value="Video Game" style="text;strokeColor=none;align=center;fillColor=none;html=1;verticalAlign=middle;whiteSpace=wrap;rounded=0;" parent="1" vertex="1">
          <mxGeometry x="1045" y="92" width="70" height="30" as="geometry" />
        </mxCell>
        <mxCell id="Kq6pPQOJHwTrtARb1F13-9" value="game_title [VARCHAR(50)]" style="text;strokeColor=none;align=center;fillColor=none;html=1;verticalAlign=middle;whiteSpace=wrap;rounded=0;" parent="1" vertex="1">
          <mxGeometry x="1045" y="122" width="160" height="30" as="geometry" />
        </mxCell>
        <mxCell id="Kq6pPQOJHwTrtARb1F13-10" value="" style="rounded=0;whiteSpace=wrap;html=1;" parent="1" vertex="1">
          <mxGeometry x="1205" y="117" width="160" height="40" as="geometry" />
        </mxCell>
        <mxCell id="Kq6pPQOJHwTrtARb1F13-36" style="edgeStyle=orthogonalEdgeStyle;rounded=0;orthogonalLoop=1;jettySize=auto;html=1;" parent="1" source="Kq6pPQOJHwTrtARb1F13-11" edge="1">
          <mxGeometry relative="1" as="geometry">
            <mxPoint x="1125" y="70" as="targetPoint" />
            <Array as="points">
              <mxPoint x="1285" y="90" />
              <mxPoint x="1125" y="90" />
            </Array>
          </mxGeometry>
        </mxCell>
        <mxCell id="Kq6pPQOJHwTrtARb1F13-11" value="dev_name [VARCHAR(50)]" style="text;strokeColor=none;align=center;fillColor=none;html=1;verticalAlign=middle;whiteSpace=wrap;rounded=0;" parent="1" vertex="1">
          <mxGeometry x="1205" y="122" width="160" height="30" as="geometry" />
        </mxCell>
        <mxCell id="Kq6pPQOJHwTrtARb1F13-12" value="" style="rounded=0;whiteSpace=wrap;html=1;" parent="1" vertex="1">
          <mxGeometry x="1365" y="117" width="160" height="40" as="geometry" />
        </mxCell>
        <mxCell id="Kq6pPQOJHwTrtARb1F13-14" value="price [SMALLMONEY]" style="text;strokeColor=none;align=center;fillColor=none;html=1;verticalAlign=middle;whiteSpace=wrap;rounded=0;" parent="1" vertex="1">
          <mxGeometry x="1365" y="122" width="160" height="30" as="geometry" />
        </mxCell>
        <mxCell id="Kq6pPQOJHwTrtARb1F13-15" value="" style="rounded=0;whiteSpace=wrap;html=1;" parent="1" vertex="1">
          <mxGeometry x="1525" y="117" width="160" height="40" as="geometry" />
        </mxCell>
        <mxCell id="Kq6pPQOJHwTrtARb1F13-16" value="release_date [DATE]" style="text;strokeColor=none;align=center;fillColor=none;html=1;verticalAlign=middle;whiteSpace=wrap;rounded=0;" parent="1" vertex="1">
          <mxGeometry x="1525" y="122" width="160" height="30" as="geometry" />
        </mxCell>
        <mxCell id="Kq6pPQOJHwTrtARb1F13-17" value="" style="rounded=0;whiteSpace=wrap;html=1;" parent="1" vertex="1">
          <mxGeometry x="1045" y="157" width="160" height="40" as="geometry" />
        </mxCell>
        <mxCell id="Kq6pPQOJHwTrtARb1F13-19" value="genre1 [VARCHAR(50)]" style="text;strokeColor=none;align=center;fillColor=none;html=1;verticalAlign=middle;whiteSpace=wrap;rounded=0;" parent="1" vertex="1">
          <mxGeometry x="1045" y="162" width="160" height="30" as="geometry" />
        </mxCell>
        <mxCell id="Kq6pPQOJHwTrtARb1F13-20" value="" style="rounded=0;whiteSpace=wrap;html=1;" parent="1" vertex="1">
          <mxGeometry x="1205" y="157" width="160" height="40" as="geometry" />
        </mxCell>
        <mxCell id="Kq6pPQOJHwTrtARb1F13-21" value="genre2 [VARCHAR(50)]" style="text;strokeColor=none;align=center;fillColor=none;html=1;verticalAlign=middle;whiteSpace=wrap;rounded=0;" parent="1" vertex="1">
          <mxGeometry x="1205" y="162" width="160" height="30" as="geometry" />
        </mxCell>
        <mxCell id="Kq6pPQOJHwTrtARb1F13-22" value="" style="rounded=0;whiteSpace=wrap;html=1;" parent="1" vertex="1">
          <mxGeometry x="1365" y="157" width="160" height="40" as="geometry" />
        </mxCell>
        <mxCell id="Kq6pPQOJHwTrtARb1F13-24" value="genre3 [VARCHAR(50)]" style="text;strokeColor=none;align=center;fillColor=none;html=1;verticalAlign=middle;whiteSpace=wrap;rounded=0;" parent="1" vertex="1">
          <mxGeometry x="1365" y="162" width="160" height="30" as="geometry" />
        </mxCell>
        <mxCell id="Kq6pPQOJHwTrtARb1F13-25" value="" style="rounded=0;whiteSpace=wrap;html=1;" parent="1" vertex="1">
          <mxGeometry x="1525" y="157" width="160" height="40" as="geometry" />
        </mxCell>
        <mxCell id="Kq6pPQOJHwTrtARb1F13-26" value="ESRB_rating [VARCHAR(50)]" style="text;strokeColor=none;align=center;fillColor=none;html=1;verticalAlign=middle;whiteSpace=wrap;rounded=0;" parent="1" vertex="1">
          <mxGeometry x="1525" y="162" width="160" height="30" as="geometry" />
        </mxCell>
        <mxCell id="Kq6pPQOJHwTrtARb1F13-28" value="" style="rounded=0;whiteSpace=wrap;html=1;" parent="1" vertex="1">
          <mxGeometry x="1045" y="245" width="160" height="40" as="geometry" />
        </mxCell>
        <mxCell id="Kq6pPQOJHwTrtARb1F13-29" value="VideoGametoFunctionality" style="text;strokeColor=none;align=center;fillColor=none;html=1;verticalAlign=middle;whiteSpace=wrap;rounded=0;" parent="1" vertex="1">
          <mxGeometry x="1045" y="220" width="140" height="30" as="geometry" />
        </mxCell>
        <mxCell id="Kq6pPQOJHwTrtARb1F13-30" value="game_title [VARCHAR(50)]" style="text;strokeColor=none;align=center;fillColor=none;html=1;verticalAlign=middle;whiteSpace=wrap;rounded=0;" parent="1" vertex="1">
          <mxGeometry x="1045" y="250" width="160" height="30" as="geometry" />
        </mxCell>
        <mxCell id="Kq6pPQOJHwTrtARb1F13-31" value="" style="rounded=0;whiteSpace=wrap;html=1;" parent="1" vertex="1">
          <mxGeometry x="1205" y="245" width="160" height="40" as="geometry" />
        </mxCell>
        <mxCell id="Kq6pPQOJHwTrtARb1F13-32" value="func_id [SMALLINT]" style="text;strokeColor=none;align=center;fillColor=none;html=1;verticalAlign=middle;whiteSpace=wrap;rounded=0;" parent="1" vertex="1">
          <mxGeometry x="1205" y="250" width="160" height="30" as="geometry" />
        </mxCell>
        <mxCell id="Kq6pPQOJHwTrtARb1F13-35" value="" style="endArrow=classic;html=1;rounded=0;exitX=0;exitY=0.5;exitDx=0;exitDy=0;entryX=0;entryY=0.5;entryDx=0;entryDy=0;" parent="1" source="Kq6pPQOJHwTrtARb1F13-30" target="Kq6pPQOJHwTrtARb1F13-9" edge="1">
          <mxGeometry width="50" height="50" relative="1" as="geometry">
            <mxPoint x="905" y="190" as="sourcePoint" />
            <mxPoint x="955" y="140" as="targetPoint" />
            <Array as="points">
              <mxPoint x="1025" y="265" />
              <mxPoint x="1025" y="137" />
            </Array>
          </mxGeometry>
        </mxCell>
        <mxCell id="Kq6pPQOJHwTrtARb1F13-37" value="" style="rounded=0;whiteSpace=wrap;html=1;" parent="1" vertex="1">
          <mxGeometry x="1045" y="345" width="160" height="40" as="geometry" />
        </mxCell>
        <mxCell id="Kq6pPQOJHwTrtARb1F13-38" value="Functionality" style="text;strokeColor=none;align=center;fillColor=none;html=1;verticalAlign=middle;whiteSpace=wrap;rounded=0;" parent="1" vertex="1">
          <mxGeometry x="1045" y="320" width="80" height="30" as="geometry" />
        </mxCell>
        <mxCell id="Kq6pPQOJHwTrtARb1F13-39" value="func_id [SMALLINT]" style="text;strokeColor=none;align=center;fillColor=none;html=1;verticalAlign=middle;whiteSpace=wrap;rounded=0;" parent="1" vertex="1">
          <mxGeometry x="1045" y="350" width="160" height="30" as="geometry" />
        </mxCell>
        <mxCell id="Kq6pPQOJHwTrtARb1F13-40" value="" style="rounded=0;whiteSpace=wrap;html=1;" parent="1" vertex="1">
          <mxGeometry x="1205" y="345" width="160" height="40" as="geometry" />
        </mxCell>
        <mxCell id="Kq6pPQOJHwTrtARb1F13-41" value="func_type [VARCHAR(50)]" style="text;strokeColor=none;align=center;fillColor=none;html=1;verticalAlign=middle;whiteSpace=wrap;rounded=0;" parent="1" vertex="1">
          <mxGeometry x="1205" y="350" width="160" height="30" as="geometry" />
        </mxCell>
        <mxCell id="Kq6pPQOJHwTrtARb1F13-42" value="" style="rounded=0;whiteSpace=wrap;html=1;" parent="1" vertex="1">
          <mxGeometry x="1365" y="345" width="160" height="40" as="geometry" />
        </mxCell>
        <mxCell id="Kq6pPQOJHwTrtARb1F13-44" value="players_min [SMALLINT]" style="text;strokeColor=none;align=center;fillColor=none;html=1;verticalAlign=middle;whiteSpace=wrap;rounded=0;" parent="1" vertex="1">
          <mxGeometry x="1365" y="350" width="160" height="30" as="geometry" />
        </mxCell>
        <mxCell id="Kq6pPQOJHwTrtARb1F13-45" value="" style="rounded=0;whiteSpace=wrap;html=1;" parent="1" vertex="1">
          <mxGeometry x="1525" y="345" width="160" height="40" as="geometry" />
        </mxCell>
        <mxCell id="Kq6pPQOJHwTrtARb1F13-46" value="players_max [SMALLINT]" style="text;strokeColor=none;align=center;fillColor=none;html=1;verticalAlign=middle;whiteSpace=wrap;rounded=0;" parent="1" vertex="1">
          <mxGeometry x="1525" y="350" width="160" height="30" as="geometry" />
        </mxCell>
        <mxCell id="Kq6pPQOJHwTrtARb1F13-47" value="" style="endArrow=classic;html=1;rounded=0;entryX=0.5;entryY=1;entryDx=0;entryDy=0;exitX=0.75;exitY=0;exitDx=0;exitDy=0;" parent="1" source="Kq6pPQOJHwTrtARb1F13-39" target="Kq6pPQOJHwTrtARb1F13-31" edge="1">
          <mxGeometry width="50" height="50" relative="1" as="geometry">
            <mxPoint x="1225" y="270" as="sourcePoint" />
            <mxPoint x="1275" y="220" as="targetPoint" />
            <Array as="points">
              <mxPoint x="1165" y="320" />
              <mxPoint x="1285" y="310" />
            </Array>
          </mxGeometry>
        </mxCell>
        <mxCell id="Kq6pPQOJHwTrtARb1F13-48" value="" style="rounded=0;whiteSpace=wrap;html=1;" parent="1" vertex="1">
          <mxGeometry x="1045" y="440" width="160" height="40" as="geometry" />
        </mxCell>
        <mxCell id="Kq6pPQOJHwTrtARb1F13-49" value="VideoGametoConsumer" style="text;strokeColor=none;align=center;fillColor=none;html=1;verticalAlign=middle;whiteSpace=wrap;rounded=0;" parent="1" vertex="1">
          <mxGeometry x="1045" y="415" width="135" height="30" as="geometry" />
        </mxCell>
        <mxCell id="Kq6pPQOJHwTrtARb1F13-53" style="edgeStyle=orthogonalEdgeStyle;rounded=0;orthogonalLoop=1;jettySize=auto;html=1;entryX=0;entryY=0.75;entryDx=0;entryDy=0;exitX=0;exitY=0.5;exitDx=0;exitDy=0;" parent="1" source="Kq6pPQOJHwTrtARb1F13-50" target="Kq6pPQOJHwTrtARb1F13-9" edge="1">
          <mxGeometry relative="1" as="geometry">
            <mxPoint x="990" y="140" as="targetPoint" />
            <mxPoint x="1055" y="470" as="sourcePoint" />
            <Array as="points">
              <mxPoint x="1010" y="460" />
              <mxPoint x="1010" y="145" />
            </Array>
          </mxGeometry>
        </mxCell>
        <mxCell id="Kq6pPQOJHwTrtARb1F13-50" value="game_title [VARCHAR(50)]" style="text;strokeColor=none;align=center;fillColor=none;html=1;verticalAlign=middle;whiteSpace=wrap;rounded=0;" parent="1" vertex="1">
          <mxGeometry x="1045" y="445" width="160" height="30" as="geometry" />
        </mxCell>
        <mxCell id="Kq6pPQOJHwTrtARb1F13-51" value="" style="rounded=0;whiteSpace=wrap;html=1;" parent="1" vertex="1">
          <mxGeometry x="1205" y="440" width="160" height="40" as="geometry" />
        </mxCell>
        <mxCell id="Kq6pPQOJHwTrtARb1F13-52" value="username [VARCHAR(50)]" style="text;strokeColor=none;align=center;fillColor=none;html=1;verticalAlign=middle;whiteSpace=wrap;rounded=0;" parent="1" vertex="1">
          <mxGeometry x="1205" y="445" width="160" height="30" as="geometry" />
        </mxCell>
        <mxCell id="Kq6pPQOJHwTrtARb1F13-54" value="" style="rounded=0;whiteSpace=wrap;html=1;" parent="1" vertex="1">
          <mxGeometry x="1045" y="535" width="160" height="40" as="geometry" />
        </mxCell>
        <mxCell id="Kq6pPQOJHwTrtARb1F13-55" value="Consumer" style="text;strokeColor=none;align=center;fillColor=none;html=1;verticalAlign=middle;whiteSpace=wrap;rounded=0;" parent="1" vertex="1">
          <mxGeometry x="1045" y="510" width="60" height="30" as="geometry" />
        </mxCell>
        <mxCell id="Kq6pPQOJHwTrtARb1F13-64" style="edgeStyle=orthogonalEdgeStyle;rounded=0;orthogonalLoop=1;jettySize=auto;html=1;entryX=0.5;entryY=1;entryDx=0;entryDy=0;" parent="1" source="Kq6pPQOJHwTrtARb1F13-56" target="Kq6pPQOJHwTrtARb1F13-51" edge="1">
          <mxGeometry relative="1" as="geometry" />
        </mxCell>
        <mxCell id="Kq6pPQOJHwTrtARb1F13-56" value="username [VARCHAR(50)]" style="text;strokeColor=none;align=center;fillColor=none;html=1;verticalAlign=middle;whiteSpace=wrap;rounded=0;" parent="1" vertex="1">
          <mxGeometry x="1045" y="540" width="160" height="30" as="geometry" />
        </mxCell>
        <mxCell id="Kq6pPQOJHwTrtARb1F13-57" value="" style="rounded=0;whiteSpace=wrap;html=1;" parent="1" vertex="1">
          <mxGeometry x="1205" y="535" width="160" height="40" as="geometry" />
        </mxCell>
        <mxCell id="Kq6pPQOJHwTrtARb1F13-58" value="first_name [VARCHAR(50)]" style="text;strokeColor=none;align=center;fillColor=none;html=1;verticalAlign=middle;whiteSpace=wrap;rounded=0;" parent="1" vertex="1">
          <mxGeometry x="1205" y="540" width="160" height="30" as="geometry" />
        </mxCell>
        <mxCell id="Kq6pPQOJHwTrtARb1F13-59" value="" style="rounded=0;whiteSpace=wrap;html=1;" parent="1" vertex="1">
          <mxGeometry x="1365" y="535" width="160" height="40" as="geometry" />
        </mxCell>
        <mxCell id="Kq6pPQOJHwTrtARb1F13-61" value="last_name [VARCHAR(50)]" style="text;strokeColor=none;align=center;fillColor=none;html=1;verticalAlign=middle;whiteSpace=wrap;rounded=0;" parent="1" vertex="1">
          <mxGeometry x="1365" y="540" width="160" height="30" as="geometry" />
        </mxCell>
        <mxCell id="Kq6pPQOJHwTrtARb1F13-62" value="" style="rounded=0;whiteSpace=wrap;html=1;" parent="1" vertex="1">
          <mxGeometry x="1525" y="535" width="160" height="40" as="geometry" />
        </mxCell>
        <mxCell id="Kq6pPQOJHwTrtARb1F13-63" value="gold_points [VARCHAR(50)]" style="text;strokeColor=none;align=center;fillColor=none;html=1;verticalAlign=middle;whiteSpace=wrap;rounded=0;" parent="1" vertex="1">
          <mxGeometry x="1525" y="540" width="160" height="30" as="geometry" />
        </mxCell>
        <mxCell id="Kq6pPQOJHwTrtARb1F13-65" value="" style="rounded=0;whiteSpace=wrap;html=1;" parent="1" vertex="1">
          <mxGeometry x="1045" y="630" width="160" height="40" as="geometry" />
        </mxCell>
        <mxCell id="Kq6pPQOJHwTrtARb1F13-66" value="DLCtoConsumer" style="text;strokeColor=none;align=center;fillColor=none;html=1;verticalAlign=middle;whiteSpace=wrap;rounded=0;" parent="1" vertex="1">
          <mxGeometry x="1045" y="605" width="95" height="30" as="geometry" />
        </mxCell>
        <mxCell id="Kq6pPQOJHwTrtARb1F13-67" value="DLC_title [VARCHAR(50)]" style="text;strokeColor=none;align=center;fillColor=none;html=1;verticalAlign=middle;whiteSpace=wrap;rounded=0;" parent="1" vertex="1">
          <mxGeometry x="1045" y="635" width="160" height="30" as="geometry" />
        </mxCell>
        <mxCell id="Kq6pPQOJHwTrtARb1F13-68" value="" style="rounded=0;whiteSpace=wrap;html=1;" parent="1" vertex="1">
          <mxGeometry x="1205" y="630" width="160" height="40" as="geometry" />
        </mxCell>
        <mxCell id="Kq6pPQOJHwTrtARb1F13-70" style="edgeStyle=orthogonalEdgeStyle;rounded=0;orthogonalLoop=1;jettySize=auto;html=1;entryX=0.5;entryY=1;entryDx=0;entryDy=0;" parent="1" source="Kq6pPQOJHwTrtARb1F13-69" target="Kq6pPQOJHwTrtARb1F13-56" edge="1">
          <mxGeometry relative="1" as="geometry" />
        </mxCell>
        <mxCell id="Kq6pPQOJHwTrtARb1F13-69" value="username [VARCHAR(50)]" style="text;strokeColor=none;align=center;fillColor=none;html=1;verticalAlign=middle;whiteSpace=wrap;rounded=0;" parent="1" vertex="1">
          <mxGeometry x="1205" y="635" width="160" height="30" as="geometry" />
        </mxCell>
        <mxCell id="Kq6pPQOJHwTrtARb1F13-71" value="" style="rounded=0;whiteSpace=wrap;html=1;" parent="1" vertex="1">
          <mxGeometry x="1045" y="720" width="160" height="40" as="geometry" />
        </mxCell>
        <mxCell id="Kq6pPQOJHwTrtARb1F13-72" value="DLC" style="text;strokeColor=none;align=center;fillColor=none;html=1;verticalAlign=middle;whiteSpace=wrap;rounded=0;" parent="1" vertex="1">
          <mxGeometry x="1032" y="695" width="60" height="30" as="geometry" />
        </mxCell>
        <mxCell id="Kq6pPQOJHwTrtARb1F13-81" style="edgeStyle=orthogonalEdgeStyle;rounded=0;orthogonalLoop=1;jettySize=auto;html=1;entryX=0.5;entryY=1;entryDx=0;entryDy=0;" parent="1" source="Kq6pPQOJHwTrtARb1F13-73" target="Kq6pPQOJHwTrtARb1F13-65" edge="1">
          <mxGeometry relative="1" as="geometry" />
        </mxCell>
        <mxCell id="Kq6pPQOJHwTrtARb1F13-73" value="DLC_title [VARCHAR(50)]" style="text;strokeColor=none;align=center;fillColor=none;html=1;verticalAlign=middle;whiteSpace=wrap;rounded=0;" parent="1" vertex="1">
          <mxGeometry x="1045" y="725" width="160" height="30" as="geometry" />
        </mxCell>
        <mxCell id="Kq6pPQOJHwTrtARb1F13-74" value="" style="rounded=0;whiteSpace=wrap;html=1;" parent="1" vertex="1">
          <mxGeometry x="1205" y="720" width="160" height="40" as="geometry" />
        </mxCell>
        <mxCell id="Kq6pPQOJHwTrtARb1F13-87" style="edgeStyle=orthogonalEdgeStyle;rounded=0;orthogonalLoop=1;jettySize=auto;html=1;entryX=0;entryY=0.5;entryDx=0;entryDy=0;" parent="1" source="Kq6pPQOJHwTrtARb1F13-75" target="Kq6pPQOJHwTrtARb1F13-9" edge="1">
          <mxGeometry relative="1" as="geometry">
            <Array as="points">
              <mxPoint x="1285" y="690" />
              <mxPoint x="1020" y="690" />
              <mxPoint x="1020" y="320" />
              <mxPoint x="990" y="320" />
              <mxPoint x="990" y="137" />
            </Array>
          </mxGeometry>
        </mxCell>
        <mxCell id="Kq6pPQOJHwTrtARb1F13-75" value="game_title [VARCHAR(50)]" style="text;strokeColor=none;align=center;fillColor=none;html=1;verticalAlign=middle;whiteSpace=wrap;rounded=0;" parent="1" vertex="1">
          <mxGeometry x="1205" y="725" width="160" height="30" as="geometry" />
        </mxCell>
        <mxCell id="Kq6pPQOJHwTrtARb1F13-76" value="" style="rounded=0;whiteSpace=wrap;html=1;" parent="1" vertex="1">
          <mxGeometry x="1365" y="720" width="160" height="40" as="geometry" />
        </mxCell>
        <mxCell id="Kq6pPQOJHwTrtARb1F13-89" style="edgeStyle=orthogonalEdgeStyle;rounded=0;orthogonalLoop=1;jettySize=auto;html=1;entryX=0.75;entryY=1;entryDx=0;entryDy=0;" parent="1" source="Kq6pPQOJHwTrtARb1F13-78" target="Kq6pPQOJHwTrtARb1F13-3" edge="1">
          <mxGeometry relative="1" as="geometry">
            <Array as="points">
              <mxPoint x="1445" y="630" />
              <mxPoint x="1690" y="630" />
              <mxPoint x="1690" y="80" />
              <mxPoint x="1165" y="80" />
            </Array>
          </mxGeometry>
        </mxCell>
        <mxCell id="Kq6pPQOJHwTrtARb1F13-78" value="dev_name [VARCHAR(50)]" style="text;strokeColor=none;align=center;fillColor=none;html=1;verticalAlign=middle;whiteSpace=wrap;rounded=0;" parent="1" vertex="1">
          <mxGeometry x="1365" y="725" width="160" height="30" as="geometry" />
        </mxCell>
        <mxCell id="Kq6pPQOJHwTrtARb1F13-79" value="" style="rounded=0;whiteSpace=wrap;html=1;" parent="1" vertex="1">
          <mxGeometry x="1525" y="720" width="160" height="40" as="geometry" />
        </mxCell>
        <mxCell id="Kq6pPQOJHwTrtARb1F13-80" value="price [SMALLMONEY]" style="text;strokeColor=none;align=center;fillColor=none;html=1;verticalAlign=middle;whiteSpace=wrap;rounded=0;" parent="1" vertex="1">
          <mxGeometry x="1525" y="725" width="160" height="30" as="geometry" />
        </mxCell>
        <mxCell id="Kq6pPQOJHwTrtARb1F13-82" value="" style="rounded=0;whiteSpace=wrap;html=1;" parent="1" vertex="1">
          <mxGeometry x="1045" y="760" width="160" height="40" as="geometry" />
        </mxCell>
        <mxCell id="Kq6pPQOJHwTrtARb1F13-84" value="release_date [DATE]" style="text;strokeColor=none;align=center;fillColor=none;html=1;verticalAlign=middle;whiteSpace=wrap;rounded=0;" parent="1" vertex="1">
          <mxGeometry x="1045" y="765" width="160" height="30" as="geometry" />
        </mxCell>
        <mxCell id="Kq6pPQOJHwTrtARb1F13-85" value="" style="rounded=0;whiteSpace=wrap;html=1;" parent="1" vertex="1">
          <mxGeometry x="1205" y="760" width="160" height="40" as="geometry" />
        </mxCell>
        <mxCell id="Kq6pPQOJHwTrtARb1F13-86" value="ESRB_rating [VARCHAR(50)]" style="text;strokeColor=none;align=center;fillColor=none;html=1;verticalAlign=middle;whiteSpace=wrap;rounded=0;" parent="1" vertex="1">
          <mxGeometry x="1205" y="765" width="160" height="30" as="geometry" />
        </mxCell>
        <mxCell id="Kq6pPQOJHwTrtARb1F13-90" value="" style="rounded=0;whiteSpace=wrap;html=1;" parent="1" vertex="1">
          <mxGeometry x="1045" y="845" width="160" height="40" as="geometry" />
        </mxCell>
        <mxCell id="Kq6pPQOJHwTrtARb1F13-91" value="DLCtoGameBundle" style="text;strokeColor=none;align=center;fillColor=none;html=1;verticalAlign=middle;whiteSpace=wrap;rounded=0;" parent="1" vertex="1">
          <mxGeometry x="1045" y="820" width="115" height="30" as="geometry" />
        </mxCell>
        <mxCell id="Kq6pPQOJHwTrtARb1F13-96" style="edgeStyle=orthogonalEdgeStyle;rounded=0;orthogonalLoop=1;jettySize=auto;html=1;entryX=0;entryY=0.5;entryDx=0;entryDy=0;" parent="1" source="Kq6pPQOJHwTrtARb1F13-92" target="Kq6pPQOJHwTrtARb1F13-73" edge="1">
          <mxGeometry relative="1" as="geometry">
            <Array as="points">
              <mxPoint x="1025" y="865" />
              <mxPoint x="1025" y="740" />
            </Array>
          </mxGeometry>
        </mxCell>
        <mxCell id="Kq6pPQOJHwTrtARb1F13-92" value="DLC_title [VARCHAR(50)]" style="text;strokeColor=none;align=center;fillColor=none;html=1;verticalAlign=middle;whiteSpace=wrap;rounded=0;" parent="1" vertex="1">
          <mxGeometry x="1045" y="850" width="160" height="30" as="geometry" />
        </mxCell>
        <mxCell id="Kq6pPQOJHwTrtARb1F13-93" value="" style="rounded=0;whiteSpace=wrap;html=1;" parent="1" vertex="1">
          <mxGeometry x="1205" y="845" width="160" height="40" as="geometry" />
        </mxCell>
        <mxCell id="Kq6pPQOJHwTrtARb1F13-94" value="bundle_title [VARCHAR(50)]" style="text;strokeColor=none;align=center;fillColor=none;html=1;verticalAlign=middle;whiteSpace=wrap;rounded=0;" parent="1" vertex="1">
          <mxGeometry x="1205" y="850" width="160" height="30" as="geometry" />
        </mxCell>
        <mxCell id="Kq6pPQOJHwTrtARb1F13-107" style="edgeStyle=orthogonalEdgeStyle;rounded=0;orthogonalLoop=1;jettySize=auto;html=1;entryX=0.5;entryY=1;entryDx=0;entryDy=0;" parent="1" source="Kq6pPQOJHwTrtARb1F13-97" target="Kq6pPQOJHwTrtARb1F13-94" edge="1">
          <mxGeometry relative="1" as="geometry" />
        </mxCell>
        <mxCell id="Kq6pPQOJHwTrtARb1F13-97" value="bundle_title [VARCHAR(50)]" style="rounded=0;whiteSpace=wrap;html=1;" parent="1" vertex="1">
          <mxGeometry x="1045" y="935" width="160" height="40" as="geometry" />
        </mxCell>
        <mxCell id="Kq6pPQOJHwTrtARb1F13-98" value="Game Bundle" style="text;strokeColor=none;align=center;fillColor=none;html=1;verticalAlign=middle;whiteSpace=wrap;rounded=0;" parent="1" vertex="1">
          <mxGeometry x="1022.5" y="910" width="115" height="30" as="geometry" />
        </mxCell>
        <mxCell id="Kq6pPQOJHwTrtARb1F13-116" style="edgeStyle=orthogonalEdgeStyle;rounded=0;orthogonalLoop=1;jettySize=auto;html=1;entryX=0.25;entryY=1;entryDx=0;entryDy=0;" parent="1" source="Kq6pPQOJHwTrtARb1F13-100" target="Kq6pPQOJHwTrtARb1F13-3" edge="1">
          <mxGeometry relative="1" as="geometry">
            <Array as="points">
              <mxPoint x="1230" y="900" />
              <mxPoint x="980" y="900" />
              <mxPoint x="980" y="500" />
              <mxPoint x="990" y="500" />
              <mxPoint x="990" y="80" />
              <mxPoint x="1085" y="80" />
            </Array>
          </mxGeometry>
        </mxCell>
        <mxCell id="Kq6pPQOJHwTrtARb1F13-100" value="dev_name [VARCHAR(50)]" style="rounded=0;whiteSpace=wrap;html=1;" parent="1" vertex="1">
          <mxGeometry x="1205" y="935" width="160" height="40" as="geometry" />
        </mxCell>
        <mxCell id="Kq6pPQOJHwTrtARb1F13-102" value="" style="rounded=0;whiteSpace=wrap;html=1;" parent="1" vertex="1">
          <mxGeometry x="1365" y="935" width="160" height="40" as="geometry" />
        </mxCell>
        <mxCell id="Kq6pPQOJHwTrtARb1F13-104" value="price [SMALLMONEY]" style="text;strokeColor=none;align=center;fillColor=none;html=1;verticalAlign=middle;whiteSpace=wrap;rounded=0;" parent="1" vertex="1">
          <mxGeometry x="1365" y="940" width="160" height="30" as="geometry" />
        </mxCell>
        <mxCell id="Kq6pPQOJHwTrtARb1F13-105" value="" style="rounded=0;whiteSpace=wrap;html=1;" parent="1" vertex="1">
          <mxGeometry x="1525" y="935" width="160" height="40" as="geometry" />
        </mxCell>
        <mxCell id="Kq6pPQOJHwTrtARb1F13-106" value="release_date [DATE]" style="text;strokeColor=none;align=center;fillColor=none;html=1;verticalAlign=middle;whiteSpace=wrap;rounded=0;" parent="1" vertex="1">
          <mxGeometry x="1525" y="940" width="160" height="30" as="geometry" />
        </mxCell>
        <mxCell id="Kq6pPQOJHwTrtARb1F13-108" value="" style="rounded=0;whiteSpace=wrap;html=1;" parent="1" vertex="1">
          <mxGeometry x="1045" y="975" width="160" height="40" as="geometry" />
        </mxCell>
        <mxCell id="Kq6pPQOJHwTrtARb1F13-110" value="ESRB_rating [VARCHAR(50)]" style="text;strokeColor=none;align=center;fillColor=none;html=1;verticalAlign=middle;whiteSpace=wrap;rounded=0;" parent="1" vertex="1">
          <mxGeometry x="1045" y="980" width="160" height="30" as="geometry" />
        </mxCell>
        <mxCell id="Kq6pPQOJHwTrtARb1F13-126" value="" style="rounded=0;whiteSpace=wrap;html=1;" parent="1" vertex="1">
          <mxGeometry x="1750" y="440" width="160" height="40" as="geometry" />
        </mxCell>
        <mxCell id="Kq6pPQOJHwTrtARb1F13-127" value="VideoGametoGameBundle" style="text;strokeColor=none;align=center;fillColor=none;html=1;verticalAlign=middle;whiteSpace=wrap;rounded=0;" parent="1" vertex="1">
          <mxGeometry x="1750" y="415" width="140" height="30" as="geometry" />
        </mxCell>
        <mxCell id="Kq6pPQOJHwTrtARb1F13-137" style="edgeStyle=orthogonalEdgeStyle;rounded=0;orthogonalLoop=1;jettySize=auto;html=1;entryX=0.5;entryY=0;entryDx=0;entryDy=0;" parent="1" source="Kq6pPQOJHwTrtARb1F13-128" target="Kq6pPQOJHwTrtARb1F13-9" edge="1">
          <mxGeometry relative="1" as="geometry">
            <Array as="points">
              <mxPoint x="1720" y="460" />
              <mxPoint x="1720" y="102" />
              <mxPoint x="1125" y="102" />
            </Array>
          </mxGeometry>
        </mxCell>
        <mxCell id="Kq6pPQOJHwTrtARb1F13-128" value="game_title [VARCHAR(50)]" style="text;strokeColor=none;align=center;fillColor=none;html=1;verticalAlign=middle;whiteSpace=wrap;rounded=0;" parent="1" vertex="1">
          <mxGeometry x="1750" y="445" width="160" height="30" as="geometry" />
        </mxCell>
        <mxCell id="Kq6pPQOJHwTrtARb1F13-129" value="" style="rounded=0;whiteSpace=wrap;html=1;" parent="1" vertex="1">
          <mxGeometry x="1910" y="440" width="160" height="40" as="geometry" />
        </mxCell>
        <mxCell id="Kq6pPQOJHwTrtARb1F13-139" style="edgeStyle=orthogonalEdgeStyle;rounded=0;orthogonalLoop=1;jettySize=auto;html=1;entryX=0.75;entryY=0;entryDx=0;entryDy=0;" parent="1" source="Kq6pPQOJHwTrtARb1F13-130" target="Kq6pPQOJHwTrtARb1F13-97" edge="1">
          <mxGeometry relative="1" as="geometry">
            <Array as="points">
              <mxPoint x="1990" y="500" />
              <mxPoint x="1730" y="500" />
              <mxPoint x="1730" y="920" />
              <mxPoint x="1165" y="920" />
            </Array>
          </mxGeometry>
        </mxCell>
        <mxCell id="Kq6pPQOJHwTrtARb1F13-130" value="bundle_title [VARCHAR(50)]" style="text;strokeColor=none;align=center;fillColor=none;html=1;verticalAlign=middle;whiteSpace=wrap;rounded=0;" parent="1" vertex="1">
          <mxGeometry x="1910" y="445" width="160" height="30" as="geometry" />
        </mxCell>
        <mxCell id="Kq6pPQOJHwTrtARb1F13-131" value="" style="rounded=0;whiteSpace=wrap;html=1;" parent="1" vertex="1">
          <mxGeometry x="1750" y="615" width="160" height="40" as="geometry" />
        </mxCell>
        <mxCell id="Kq6pPQOJHwTrtARb1F13-132" value="GameBundletoConsumer" style="text;strokeColor=none;align=center;fillColor=none;html=1;verticalAlign=middle;whiteSpace=wrap;rounded=0;" parent="1" vertex="1">
          <mxGeometry x="1750" y="590" width="140" height="30" as="geometry" />
        </mxCell>
        <mxCell id="Kq6pPQOJHwTrtARb1F13-142" style="edgeStyle=orthogonalEdgeStyle;rounded=0;orthogonalLoop=1;jettySize=auto;html=1;entryX=0.75;entryY=0;entryDx=0;entryDy=0;" parent="1" source="Kq6pPQOJHwTrtARb1F13-133" target="Kq6pPQOJHwTrtARb1F13-97" edge="1">
          <mxGeometry relative="1" as="geometry">
            <Array as="points">
              <mxPoint x="1830" y="920" />
              <mxPoint x="1165" y="920" />
            </Array>
          </mxGeometry>
        </mxCell>
        <mxCell id="Kq6pPQOJHwTrtARb1F13-133" value="bundle_title [VARCHAR(50)]" style="text;strokeColor=none;align=center;fillColor=none;html=1;verticalAlign=middle;whiteSpace=wrap;rounded=0;" parent="1" vertex="1">
          <mxGeometry x="1750" y="620" width="160" height="30" as="geometry" />
        </mxCell>
        <mxCell id="Kq6pPQOJHwTrtARb1F13-134" value="" style="rounded=0;whiteSpace=wrap;html=1;" parent="1" vertex="1">
          <mxGeometry x="1910" y="615" width="160" height="40" as="geometry" />
        </mxCell>
        <mxCell id="Kq6pPQOJHwTrtARb1F13-138" style="edgeStyle=orthogonalEdgeStyle;rounded=0;orthogonalLoop=1;jettySize=auto;html=1;entryX=0.75;entryY=0;entryDx=0;entryDy=0;" parent="1" source="Kq6pPQOJHwTrtARb1F13-135" target="Kq6pPQOJHwTrtARb1F13-56" edge="1">
          <mxGeometry relative="1" as="geometry">
            <Array as="points">
              <mxPoint x="1990" y="520" />
              <mxPoint x="1165" y="520" />
            </Array>
          </mxGeometry>
        </mxCell>
        <mxCell id="Kq6pPQOJHwTrtARb1F13-135" value="username [VARCHAR(50)]" style="text;strokeColor=none;align=center;fillColor=none;html=1;verticalAlign=middle;whiteSpace=wrap;rounded=0;" parent="1" vertex="1">
          <mxGeometry x="1910" y="620" width="160" height="30" as="geometry" />
        </mxCell>
        <mxCell id="8RMxz1VBTewIA4kp3Pvu-2" value="" style="ellipse;whiteSpace=wrap;html=1;" parent="1" vertex="1">
          <mxGeometry x="350" y="125" width="10" height="10" as="geometry" />
        </mxCell>
        <mxCell id="8RMxz1VBTewIA4kp3Pvu-5" value="" style="ellipse;whiteSpace=wrap;html=1;" parent="1" vertex="1">
          <mxGeometry x="557" y="125" width="10" height="10" as="geometry" />
        </mxCell>
        <mxCell id="8RMxz1VBTewIA4kp3Pvu-6" value="" style="ellipse;whiteSpace=wrap;html=1;" parent="1" vertex="1">
          <mxGeometry x="11" y="500" width="10" height="10" as="geometry" />
        </mxCell>
        <mxCell id="8RMxz1VBTewIA4kp3Pvu-7" value="" style="ellipse;whiteSpace=wrap;html=1;" parent="1" vertex="1">
          <mxGeometry x="278" y="455" width="10" height="10" as="geometry" />
        </mxCell>
        <mxCell id="8RMxz1VBTewIA4kp3Pvu-11" value="" style="ellipse;whiteSpace=wrap;html=1;" parent="1" vertex="1">
          <mxGeometry x="908" y="430" width="10" height="10" as="geometry" />
        </mxCell>
        <mxCell id="8RMxz1VBTewIA4kp3Pvu-12" value="" style="ellipse;whiteSpace=wrap;html=1;" parent="1" vertex="1">
          <mxGeometry x="701" y="375" width="10" height="10" as="geometry" />
        </mxCell>
        <mxCell id="8RMxz1VBTewIA4kp3Pvu-14" value="" style="ellipse;whiteSpace=wrap;html=1;" parent="1" vertex="1">
          <mxGeometry x="101" y="735" width="10" height="10" as="geometry" />
        </mxCell>
        <mxCell id="8RMxz1VBTewIA4kp3Pvu-15" value="" style="ellipse;whiteSpace=wrap;html=1;" parent="1" vertex="1">
          <mxGeometry x="350" y="816" width="10" height="10" as="geometry" />
        </mxCell>
        <mxCell id="8RMxz1VBTewIA4kp3Pvu-16" value="" style="ellipse;whiteSpace=wrap;html=1;" parent="1" vertex="1">
          <mxGeometry x="306" y="736" width="10" height="10" as="geometry" />
        </mxCell>
        <mxCell id="8RMxz1VBTewIA4kp3Pvu-17" value="" style="ellipse;whiteSpace=wrap;html=1;" parent="1" vertex="1">
          <mxGeometry x="630" y="566" width="10" height="10" as="geometry" />
        </mxCell>
        <mxCell id="8RMxz1VBTewIA4kp3Pvu-18" value="" style="ellipse;whiteSpace=wrap;html=1;" parent="1" vertex="1">
          <mxGeometry x="403" y="675" width="10" height="10" as="geometry" />
        </mxCell>
        <mxCell id="8RMxz1VBTewIA4kp3Pvu-19" value="" style="ellipse;whiteSpace=wrap;html=1;" parent="1" vertex="1">
          <mxGeometry x="607" y="675" width="10" height="10" as="geometry" />
        </mxCell>
        <mxCell id="8RMxz1VBTewIA4kp3Pvu-20" value="" style="ellipse;whiteSpace=wrap;html=1;" parent="1" vertex="1">
          <mxGeometry x="838" y="650" width="10" height="10" as="geometry" />
        </mxCell>
        <mxCell id="8RMxz1VBTewIA4kp3Pvu-21" value="" style="ellipse;whiteSpace=wrap;html=1;" parent="1" vertex="1">
          <mxGeometry x="650" y="750" width="10" height="10" as="geometry" />
        </mxCell>
        <mxCell id="8RMxz1VBTewIA4kp3Pvu-22" value="" style="ellipse;whiteSpace=wrap;html=1;" parent="1" vertex="1">
          <mxGeometry x="858" y="750" width="10" height="10" as="geometry" />
        </mxCell>
        <mxCell id="8RMxz1VBTewIA4kp3Pvu-26" value="" style="shape=partialRectangle;whiteSpace=wrap;html=1;right=0;top=0;bottom=0;fillColor=none;routingCenterX=-0.5;" parent="1" vertex="1">
          <mxGeometry x="258" y="118" width="10" height="25" as="geometry" />
        </mxCell>
        <mxCell id="8RMxz1VBTewIA4kp3Pvu-28" value="" style="shape=partialRectangle;whiteSpace=wrap;html=1;right=0;top=0;bottom=0;fillColor=none;routingCenterX=-0.5;" parent="1" vertex="1">
          <mxGeometry x="403" y="289" width="10" height="25" as="geometry" />
        </mxCell>
        <mxCell id="8RMxz1VBTewIA4kp3Pvu-29" value="" style="shape=partialRectangle;whiteSpace=wrap;html=1;right=0;top=0;bottom=0;fillColor=none;routingCenterX=-0.5;" parent="1" vertex="1">
          <mxGeometry x="289" y="285" width="10" height="25" as="geometry" />
        </mxCell>
        <mxCell id="8RMxz1VBTewIA4kp3Pvu-30" value="" style="shape=partialRectangle;whiteSpace=wrap;html=1;right=0;top=0;bottom=0;fillColor=none;routingCenterX=-0.5;" parent="1" vertex="1">
          <mxGeometry x="400" y="349" width="10" height="25" as="geometry" />
        </mxCell>
        <mxCell id="8RMxz1VBTewIA4kp3Pvu-31" value="" style="shape=partialRectangle;whiteSpace=wrap;html=1;right=0;top=0;bottom=0;fillColor=none;routingCenterX=-0.5;" parent="1" vertex="1">
          <mxGeometry x="288" y="321" width="10" height="25" as="geometry" />
        </mxCell>
        <mxCell id="8RMxz1VBTewIA4kp3Pvu-32" value="" style="shape=partialRectangle;whiteSpace=wrap;html=1;right=0;top=0;bottom=0;fillColor=none;routingCenterX=-0.5;" parent="1" vertex="1">
          <mxGeometry x="679" y="290" width="10" height="25" as="geometry" />
        </mxCell>
        <mxCell id="8RMxz1VBTewIA4kp3Pvu-33" value="" style="shape=partialRectangle;whiteSpace=wrap;html=1;right=0;top=0;bottom=0;fillColor=none;routingCenterX=-0.5;" parent="1" vertex="1">
          <mxGeometry x="407" y="432" width="10" height="25" as="geometry" />
        </mxCell>
        <mxCell id="8RMxz1VBTewIA4kp3Pvu-34" value="" style="shape=partialRectangle;whiteSpace=wrap;html=1;right=0;top=0;bottom=0;fillColor=none;routingCenterX=-0.5;" parent="1" vertex="1">
          <mxGeometry x="13" y="322" width="10" height="25" as="geometry" />
        </mxCell>
        <mxCell id="8RMxz1VBTewIA4kp3Pvu-35" value="" style="shape=partialRectangle;whiteSpace=wrap;html=1;right=0;top=0;bottom=0;fillColor=none;routingCenterX=-0.5;" parent="1" vertex="1">
          <mxGeometry x="24" y="548" width="10" height="25" as="geometry" />
        </mxCell>
        <mxCell id="8RMxz1VBTewIA4kp3Pvu-36" value="" style="shape=partialRectangle;whiteSpace=wrap;html=1;right=0;top=0;bottom=0;fillColor=none;routingCenterX=-0.5;" parent="1" vertex="1">
          <mxGeometry x="279" y="537" width="10" height="25" as="geometry" />
        </mxCell>
        <mxCell id="8RMxz1VBTewIA4kp3Pvu-37" value="" style="shape=partialRectangle;whiteSpace=wrap;html=1;right=0;top=0;bottom=0;fillColor=none;routingCenterX=-0.5;" parent="1" vertex="1">
          <mxGeometry x="607" y="809" width="10" height="25" as="geometry" />
        </mxCell>
        <mxCell id="8RMxz1VBTewIA4kp3Pvu-38" value="" style="shape=partialRectangle;whiteSpace=wrap;html=1;right=0;top=0;bottom=0;fillColor=none;routingCenterX=-0.5;" parent="1" vertex="1">
          <mxGeometry x="608" y="865" width="10" height="25" as="geometry" />
        </mxCell>
        <mxCell id="8RMxz1VBTewIA4kp3Pvu-40" value="" style="shape=partialRectangle;whiteSpace=wrap;html=1;right=0;top=0;bottom=0;fillColor=none;routingCenterX=-0.5;" parent="1" vertex="1">
          <mxGeometry x="869" y="930" width="10" height="25" as="geometry" />
        </mxCell>
        <mxCell id="8RMxz1VBTewIA4kp3Pvu-41" value="" style="shape=partialRectangle;whiteSpace=wrap;html=1;right=0;top=0;bottom=0;fillColor=none;routingCenterX=-0.5;" parent="1" vertex="1">
          <mxGeometry x="869" y="1036" width="10" height="25" as="geometry" />
        </mxCell>
        <mxCell id="8RMxz1VBTewIA4kp3Pvu-42" value="" style="shape=partialRectangle;whiteSpace=wrap;html=1;right=0;top=0;bottom=0;fillColor=none;routingCenterX=-0.5;" parent="1" vertex="1">
          <mxGeometry x="869" y="980" width="10" height="25" as="geometry" />
        </mxCell>
        <mxCell id="8RMxz1VBTewIA4kp3Pvu-43" value="" style="shape=partialRectangle;whiteSpace=wrap;html=1;right=0;top=0;bottom=0;fillColor=none;routingCenterX=-0.5;" parent="1" vertex="1">
          <mxGeometry x="353" y="868.5" width="10" height="25" as="geometry" />
        </mxCell>
        <mxCell id="XLSmM7YbG8Jub12ojwuk-1" value="" style="whiteSpace=wrap;html=1;" parent="1" vertex="1">
          <mxGeometry x="1525" y="576" width="155" height="34" as="geometry" />
        </mxCell>
        <mxCell id="XLSmM7YbG8Jub12ojwuk-2" value="fav_genre [VARCHAR(50)]" style="text;strokeColor=none;align=center;fillColor=none;html=1;verticalAlign=middle;whiteSpace=wrap;rounded=0;" parent="1" vertex="1">
          <mxGeometry x="1525" y="576" width="160" height="30" as="geometry" />
        </mxCell>
      </root>
    </mxGraphModel>
  </diagram>
</mxfile>
